<mxfile host="app.diagrams.net" agent="Mozilla/5.0 (Windows NT 10.0; Win64; x64) AppleWebKit/537.36 (KHTML, like Gecko) Chrome/127.0.0.0 Safari/537.36" version="24.7.6" pages="2">
  <diagram name="Portabilidade Aprovada" id="ydfYksb81fXE0M8u0XxO">
    <mxGraphModel dx="1185" dy="426" grid="1" gridSize="10" guides="1" tooltips="1" connect="1" arrows="1" fold="1" page="1" pageScale="1" pageWidth="850" pageHeight="1100" math="0" shadow="0">
      <root>
        <mxCell id="0" />
        <mxCell id="1" parent="0" />
        <mxCell id="726MFELe5FYtr4tNDpS5-13" style="edgeStyle=orthogonalEdgeStyle;rounded=0;orthogonalLoop=1;jettySize=auto;html=1;entryX=0;entryY=0.5;entryDx=0;entryDy=0;dashed=1;" edge="1" parent="1" source="726MFELe5FYtr4tNDpS5-1" target="726MFELe5FYtr4tNDpS5-11">
          <mxGeometry relative="1" as="geometry" />
        </mxCell>
        <mxCell id="726MFELe5FYtr4tNDpS5-17" style="edgeStyle=orthogonalEdgeStyle;rounded=0;orthogonalLoop=1;jettySize=auto;html=1;entryX=0;entryY=0.5;entryDx=0;entryDy=0;" edge="1" parent="1" source="726MFELe5FYtr4tNDpS5-1" target="726MFELe5FYtr4tNDpS5-15">
          <mxGeometry relative="1" as="geometry" />
        </mxCell>
        <mxCell id="726MFELe5FYtr4tNDpS5-1" value="lbd-distribuir" style="rounded=0;whiteSpace=wrap;html=1;fillColor=#d5e8d4;gradientColor=#97d077;strokeColor=#82b366;" vertex="1" parent="1">
          <mxGeometry x="210" y="90" width="80" height="40" as="geometry" />
        </mxCell>
        <mxCell id="726MFELe5FYtr4tNDpS5-11" value="&lt;span style=&quot;color: rgb(0, 0, 0); font-family: Helvetica; font-size: 7px; font-style: normal; font-variant-ligatures: normal; font-variant-caps: normal; font-weight: 400; letter-spacing: normal; orphans: 2; text-align: center; text-indent: 0px; text-transform: none; widows: 2; word-spacing: 0px; -webkit-text-stroke-width: 0px; white-space: normal; background-color: rgb(251, 251, 251); text-decoration-thickness: initial; text-decoration-style: initial; text-decoration-color: initial; float: none; display: inline !important;&quot;&gt;Posição:&lt;/span&gt;&lt;div style=&quot;font-size: 7px;&quot;&gt;&lt;span style=&quot;color: rgb(0, 0, 0); font-family: Helvetica; font-size: 7px; font-style: normal; font-variant-ligatures: normal; font-variant-caps: normal; font-weight: 400; letter-spacing: normal; orphans: 2; text-align: center; text-indent: 0px; text-transform: none; widows: 2; word-spacing: 0px; -webkit-text-stroke-width: 0px; white-space: normal; background-color: rgb(251, 251, 251); text-decoration-thickness: initial; text-decoration-style: initial; text-decoration-color: initial; float: none; display: inline !important;&quot;&gt;RECEBIDO&lt;/span&gt;&lt;/div&gt;" style="text;whiteSpace=wrap;html=1;fontSize=7;" vertex="1" parent="1">
          <mxGeometry x="270" y="40" width="40" height="30" as="geometry" />
        </mxCell>
        <mxCell id="726MFELe5FYtr4tNDpS5-14" style="edgeStyle=orthogonalEdgeStyle;rounded=0;orthogonalLoop=1;jettySize=auto;html=1;entryX=0;entryY=0.5;entryDx=0;entryDy=0;dashed=1;" edge="1" parent="1" source="726MFELe5FYtr4tNDpS5-15" target="726MFELe5FYtr4tNDpS5-16">
          <mxGeometry relative="1" as="geometry" />
        </mxCell>
        <mxCell id="726MFELe5FYtr4tNDpS5-21" style="edgeStyle=orthogonalEdgeStyle;rounded=0;orthogonalLoop=1;jettySize=auto;html=1;" edge="1" parent="1" source="726MFELe5FYtr4tNDpS5-15" target="726MFELe5FYtr4tNDpS5-19">
          <mxGeometry relative="1" as="geometry" />
        </mxCell>
        <mxCell id="726MFELe5FYtr4tNDpS5-15" value="lbd-defesa-auto-reter" style="rounded=0;whiteSpace=wrap;html=1;fillColor=#f5f5f5;gradientColor=#b3b3b3;strokeColor=#666666;" vertex="1" parent="1">
          <mxGeometry x="340" y="90" width="80" height="40" as="geometry" />
        </mxCell>
        <mxCell id="726MFELe5FYtr4tNDpS5-16" value="&lt;span style=&quot;color: rgb(0, 0, 0); font-family: Helvetica; font-size: 7px; font-style: normal; font-variant-ligatures: normal; font-variant-caps: normal; font-weight: 400; letter-spacing: normal; orphans: 2; text-align: center; text-indent: 0px; text-transform: none; widows: 2; word-spacing: 0px; -webkit-text-stroke-width: 0px; white-space: normal; background-color: rgb(251, 251, 251); text-decoration-thickness: initial; text-decoration-style: initial; text-decoration-color: initial; float: none; display: inline !important;&quot;&gt;Posição:&lt;/span&gt;&lt;div style=&quot;font-size: 7px;&quot;&gt;&lt;span style=&quot;color: rgb(0, 0, 0); font-family: Helvetica; font-size: 7px; font-style: normal; font-variant-ligatures: normal; font-variant-caps: normal; font-weight: 400; letter-spacing: normal; orphans: 2; text-align: center; text-indent: 0px; text-transform: none; widows: 2; word-spacing: 0px; -webkit-text-stroke-width: 0px; white-space: normal; background-color: rgb(251, 251, 251); text-decoration-thickness: initial; text-decoration-style: initial; text-decoration-color: initial; float: none; display: inline !important;&quot;&gt;ENVIADO_PRODUTO&lt;/span&gt;&lt;/div&gt;" style="text;whiteSpace=wrap;html=1;fontSize=7;" vertex="1" parent="1">
          <mxGeometry x="400" y="40" width="80" height="30" as="geometry" />
        </mxCell>
        <mxCell id="726MFELe5FYtr4tNDpS5-18" style="edgeStyle=orthogonalEdgeStyle;rounded=0;orthogonalLoop=1;jettySize=auto;html=1;entryX=0;entryY=0.5;entryDx=0;entryDy=0;dashed=1;" edge="1" parent="1" source="726MFELe5FYtr4tNDpS5-19" target="726MFELe5FYtr4tNDpS5-20">
          <mxGeometry relative="1" as="geometry" />
        </mxCell>
        <mxCell id="726MFELe5FYtr4tNDpS5-47" style="edgeStyle=orthogonalEdgeStyle;rounded=0;orthogonalLoop=1;jettySize=auto;html=1;entryX=0;entryY=0.5;entryDx=0;entryDy=0;dashed=1;exitX=1;exitY=0.5;exitDx=0;exitDy=0;" edge="1" parent="1" source="3y3GQ4eEcmSv0iMo7wFA-1" target="726MFELe5FYtr4tNDpS5-44">
          <mxGeometry relative="1" as="geometry">
            <Array as="points">
              <mxPoint x="700" y="110" />
              <mxPoint x="700" y="150" />
              <mxPoint x="90" y="150" />
              <mxPoint x="90" y="230" />
            </Array>
          </mxGeometry>
        </mxCell>
        <mxCell id="3y3GQ4eEcmSv0iMo7wFA-2" style="edgeStyle=orthogonalEdgeStyle;rounded=0;orthogonalLoop=1;jettySize=auto;html=1;entryX=0;entryY=0.5;entryDx=0;entryDy=0;" edge="1" parent="1" source="726MFELe5FYtr4tNDpS5-19" target="3y3GQ4eEcmSv0iMo7wFA-1">
          <mxGeometry relative="1" as="geometry" />
        </mxCell>
        <mxCell id="726MFELe5FYtr4tNDpS5-19" value="lbd-defesa-enviar" style="rounded=0;whiteSpace=wrap;html=1;fillColor=#f5f5f5;gradientColor=#b3b3b3;strokeColor=#666666;" vertex="1" parent="1">
          <mxGeometry x="500" y="90" width="80" height="40" as="geometry" />
        </mxCell>
        <mxCell id="726MFELe5FYtr4tNDpS5-20" value="&lt;span style=&quot;color: rgb(0, 0, 0); font-family: Helvetica; font-size: 7px; font-style: normal; font-variant-ligatures: normal; font-variant-caps: normal; font-weight: 400; letter-spacing: normal; orphans: 2; text-align: center; text-indent: 0px; text-transform: none; widows: 2; word-spacing: 0px; -webkit-text-stroke-width: 0px; white-space: normal; background-color: rgb(251, 251, 251); text-decoration-thickness: initial; text-decoration-style: initial; text-decoration-color: initial; float: none; display: inline !important;&quot;&gt;Posição:&lt;/span&gt;&lt;div style=&quot;font-size: 7px;&quot;&gt;&lt;span style=&quot;color: rgb(0, 0, 0); font-family: Helvetica; font-size: 7px; font-style: normal; font-variant-ligatures: normal; font-variant-caps: normal; font-weight: 400; letter-spacing: normal; orphans: 2; text-align: center; text-indent: 0px; text-transform: none; widows: 2; word-spacing: 0px; -webkit-text-stroke-width: 0px; white-space: normal; background-color: rgb(251, 251, 251); text-decoration-thickness: initial; text-decoration-style: initial; text-decoration-color: initial; float: none; display: inline !important;&quot;&gt;ENVIADO_SALDO&lt;/span&gt;&lt;/div&gt;" style="text;whiteSpace=wrap;html=1;fontSize=7;" vertex="1" parent="1">
          <mxGeometry x="560" y="40" width="60" height="30" as="geometry" />
        </mxCell>
        <mxCell id="726MFELe5FYtr4tNDpS5-24" style="edgeStyle=orthogonalEdgeStyle;rounded=0;orthogonalLoop=1;jettySize=auto;html=1;entryX=0;entryY=0.5;entryDx=0;entryDy=0;" edge="1" parent="1" source="726MFELe5FYtr4tNDpS5-23" target="726MFELe5FYtr4tNDpS5-1">
          <mxGeometry relative="1" as="geometry" />
        </mxCell>
        <mxCell id="726MFELe5FYtr4tNDpS5-23" value="ACTC602" style="ellipse;whiteSpace=wrap;html=1;aspect=fixed;fontSize=8;fillColor=#d5e8d4;gradientColor=#97d077;strokeColor=#82b366;fontStyle=1" vertex="1" parent="1">
          <mxGeometry x="110" y="85" width="50" height="50" as="geometry" />
        </mxCell>
        <mxCell id="726MFELe5FYtr4tNDpS5-30" value="D+5" style="shape=process;whiteSpace=wrap;html=1;backgroundOutline=1;fillColor=#f5f5f5;gradientColor=#b3b3b3;strokeColor=#666666;" vertex="1" parent="1">
          <mxGeometry x="440" y="100" width="40" height="20" as="geometry" />
        </mxCell>
        <mxCell id="726MFELe5FYtr4tNDpS5-32" style="edgeStyle=orthogonalEdgeStyle;rounded=0;orthogonalLoop=1;jettySize=auto;html=1;entryX=0;entryY=0.5;entryDx=0;entryDy=0;dashed=1;" edge="1" parent="1" source="726MFELe5FYtr4tNDpS5-34" target="726MFELe5FYtr4tNDpS5-35">
          <mxGeometry relative="1" as="geometry" />
        </mxCell>
        <mxCell id="726MFELe5FYtr4tNDpS5-53" style="edgeStyle=orthogonalEdgeStyle;rounded=0;orthogonalLoop=1;jettySize=auto;html=1;entryX=0;entryY=0.5;entryDx=0;entryDy=0;exitX=1;exitY=0.5;exitDx=0;exitDy=0;dashed=1;" edge="1" parent="1" source="726MFELe5FYtr4tNDpS5-34" target="726MFELe5FYtr4tNDpS5-52">
          <mxGeometry relative="1" as="geometry">
            <Array as="points">
              <mxPoint x="300" y="230" />
              <mxPoint x="300" y="270" />
              <mxPoint x="90" y="270" />
              <mxPoint x="90" y="350" />
            </Array>
          </mxGeometry>
        </mxCell>
        <mxCell id="726MFELe5FYtr4tNDpS5-34" value="lbd-distribuir" style="rounded=0;whiteSpace=wrap;html=1;fillColor=#f5f5f5;gradientColor=#b3b3b3;strokeColor=#666666;" vertex="1" parent="1">
          <mxGeometry x="210" y="210" width="80" height="40" as="geometry" />
        </mxCell>
        <mxCell id="726MFELe5FYtr4tNDpS5-35" value="&lt;span style=&quot;color: rgb(0, 0, 0); font-family: Helvetica; font-size: 7px; font-style: normal; font-variant-ligatures: normal; font-variant-caps: normal; font-weight: 400; letter-spacing: normal; orphans: 2; text-align: center; text-indent: 0px; text-transform: none; widows: 2; word-spacing: 0px; -webkit-text-stroke-width: 0px; white-space: normal; background-color: rgb(251, 251, 251); text-decoration-thickness: initial; text-decoration-style: initial; text-decoration-color: initial; float: none; display: inline !important;&quot;&gt;Posição:&lt;/span&gt;&lt;div style=&quot;font-size: 7px;&quot;&gt;&lt;span style=&quot;color: rgb(0, 0, 0); font-family: Helvetica; font-size: 7px; font-style: normal; font-variant-ligatures: normal; font-variant-caps: normal; font-weight: 400; letter-spacing: normal; orphans: 2; text-align: center; text-indent: 0px; text-transform: none; widows: 2; word-spacing: 0px; -webkit-text-stroke-width: 0px; white-space: normal; background-color: rgb(251, 251, 251); text-decoration-thickness: initial; text-decoration-style: initial; text-decoration-color: initial; float: none; display: inline !important;&quot;&gt;ACEITO&lt;/span&gt;&lt;/div&gt;" style="text;whiteSpace=wrap;html=1;fontSize=7;" vertex="1" parent="1">
          <mxGeometry x="270" y="160" width="40" height="30" as="geometry" />
        </mxCell>
        <mxCell id="726MFELe5FYtr4tNDpS5-43" style="edgeStyle=orthogonalEdgeStyle;rounded=0;orthogonalLoop=1;jettySize=auto;html=1;entryX=0;entryY=0.5;entryDx=0;entryDy=0;" edge="1" parent="1" source="726MFELe5FYtr4tNDpS5-44" target="726MFELe5FYtr4tNDpS5-34">
          <mxGeometry relative="1" as="geometry" />
        </mxCell>
        <mxCell id="726MFELe5FYtr4tNDpS5-44" value="ACTC603RET" style="ellipse;whiteSpace=wrap;html=1;aspect=fixed;fontSize=6;fillColor=#f5f5f5;gradientColor=#b3b3b3;strokeColor=#666666;fontStyle=1" vertex="1" parent="1">
          <mxGeometry x="110" y="205" width="50" height="50" as="geometry" />
        </mxCell>
        <mxCell id="726MFELe5FYtr4tNDpS5-48" style="edgeStyle=orthogonalEdgeStyle;rounded=0;orthogonalLoop=1;jettySize=auto;html=1;entryX=0;entryY=0.5;entryDx=0;entryDy=0;dashed=1;" edge="1" parent="1" source="726MFELe5FYtr4tNDpS5-49" target="726MFELe5FYtr4tNDpS5-50">
          <mxGeometry relative="1" as="geometry" />
        </mxCell>
        <mxCell id="726MFELe5FYtr4tNDpS5-56" style="edgeStyle=orthogonalEdgeStyle;rounded=0;orthogonalLoop=1;jettySize=auto;html=1;entryX=0;entryY=0.5;entryDx=0;entryDy=0;" edge="1" parent="1" source="726MFELe5FYtr4tNDpS5-49" target="726MFELe5FYtr4tNDpS5-55">
          <mxGeometry relative="1" as="geometry" />
        </mxCell>
        <mxCell id="726MFELe5FYtr4tNDpS5-49" value="lbd-defesa-liquidar-iu" style="rounded=0;whiteSpace=wrap;html=1;fillColor=#f5f5f5;gradientColor=#b3b3b3;strokeColor=#666666;" vertex="1" parent="1">
          <mxGeometry x="210" y="330" width="80" height="40" as="geometry" />
        </mxCell>
        <mxCell id="726MFELe5FYtr4tNDpS5-50" value="&lt;span style=&quot;color: rgb(0, 0, 0); font-family: Helvetica; font-size: 7px; font-style: normal; font-variant-ligatures: normal; font-variant-caps: normal; font-weight: 400; letter-spacing: normal; orphans: 2; text-align: center; text-indent: 0px; text-transform: none; widows: 2; word-spacing: 0px; -webkit-text-stroke-width: 0px; white-space: normal; background-color: rgb(251, 251, 251); text-decoration-thickness: initial; text-decoration-style: initial; text-decoration-color: initial; float: none; display: inline !important;&quot;&gt;Posição:&lt;/span&gt;&lt;div style=&quot;font-size: 7px;&quot;&gt;&lt;span style=&quot;color: rgb(0, 0, 0); font-family: Helvetica; font-size: 7px; font-style: normal; font-variant-ligatures: normal; font-variant-caps: normal; font-weight: 400; letter-spacing: normal; orphans: 2; text-align: center; text-indent: 0px; text-transform: none; widows: 2; word-spacing: 0px; -webkit-text-stroke-width: 0px; white-space: normal; background-color: rgb(251, 251, 251); text-decoration-thickness: initial; text-decoration-style: initial; text-decoration-color: initial; float: none; display: inline !important;&quot;&gt;LIQUIDACAO_ENVIADA&lt;/span&gt;&lt;/div&gt;" style="text;whiteSpace=wrap;html=1;fontSize=7;" vertex="1" parent="1">
          <mxGeometry x="270" y="280" width="80" height="30" as="geometry" />
        </mxCell>
        <mxCell id="726MFELe5FYtr4tNDpS5-79" style="edgeStyle=orthogonalEdgeStyle;rounded=0;orthogonalLoop=1;jettySize=auto;html=1;entryX=0;entryY=0.5;entryDx=0;entryDy=0;" edge="1" parent="1" source="726MFELe5FYtr4tNDpS5-52" target="726MFELe5FYtr4tNDpS5-49">
          <mxGeometry relative="1" as="geometry" />
        </mxCell>
        <mxCell id="726MFELe5FYtr4tNDpS5-52" value="STR0047R2" style="ellipse;whiteSpace=wrap;html=1;aspect=fixed;fontSize=6;fillColor=#f5f5f5;gradientColor=#b3b3b3;strokeColor=#666666;fontStyle=1" vertex="1" parent="1">
          <mxGeometry x="110" y="325" width="50" height="50" as="geometry" />
        </mxCell>
        <mxCell id="726MFELe5FYtr4tNDpS5-62" style="edgeStyle=orthogonalEdgeStyle;rounded=0;orthogonalLoop=1;jettySize=auto;html=1;entryX=0;entryY=0.5;entryDx=0;entryDy=0;dashed=1;" edge="1" parent="1" source="726MFELe5FYtr4tNDpS5-55" target="726MFELe5FYtr4tNDpS5-61">
          <mxGeometry relative="1" as="geometry">
            <Array as="points">
              <mxPoint x="430" y="350" />
              <mxPoint x="430" y="390" />
              <mxPoint x="90" y="390" />
              <mxPoint x="90" y="470" />
            </Array>
          </mxGeometry>
        </mxCell>
        <mxCell id="726MFELe5FYtr4tNDpS5-55" value="ACTC902" style="ellipse;whiteSpace=wrap;html=1;aspect=fixed;fontSize=8;fillColor=#f5f5f5;gradientColor=#b3b3b3;strokeColor=#666666;fontStyle=1" vertex="1" parent="1">
          <mxGeometry x="360" y="325" width="50" height="50" as="geometry" />
        </mxCell>
        <mxCell id="726MFELe5FYtr4tNDpS5-57" style="edgeStyle=orthogonalEdgeStyle;rounded=0;orthogonalLoop=1;jettySize=auto;html=1;entryX=0;entryY=0.5;entryDx=0;entryDy=0;dashed=1;" edge="1" parent="1" source="726MFELe5FYtr4tNDpS5-58" target="726MFELe5FYtr4tNDpS5-59">
          <mxGeometry relative="1" as="geometry" />
        </mxCell>
        <mxCell id="726MFELe5FYtr4tNDpS5-68" style="edgeStyle=orthogonalEdgeStyle;rounded=0;orthogonalLoop=1;jettySize=auto;html=1;entryX=0;entryY=0.5;entryDx=0;entryDy=0;exitX=1;exitY=0.5;exitDx=0;exitDy=0;dashed=1;" edge="1" parent="1" source="726MFELe5FYtr4tNDpS5-58" target="726MFELe5FYtr4tNDpS5-67">
          <mxGeometry relative="1" as="geometry">
            <Array as="points">
              <mxPoint x="300" y="470" />
              <mxPoint x="300" y="510" />
              <mxPoint x="90" y="510" />
              <mxPoint x="90" y="590" />
            </Array>
          </mxGeometry>
        </mxCell>
        <mxCell id="726MFELe5FYtr4tNDpS5-58" value="lbd-distribuir" style="rounded=0;whiteSpace=wrap;html=1;fillColor=#f5f5f5;gradientColor=#b3b3b3;strokeColor=#666666;" vertex="1" parent="1">
          <mxGeometry x="210" y="450" width="80" height="40" as="geometry" />
        </mxCell>
        <mxCell id="726MFELe5FYtr4tNDpS5-59" value="&lt;span style=&quot;color: rgb(0, 0, 0); font-family: Helvetica; font-size: 7px; font-style: normal; font-variant-ligatures: normal; font-variant-caps: normal; font-weight: 400; letter-spacing: normal; orphans: 2; text-align: center; text-indent: 0px; text-transform: none; widows: 2; word-spacing: 0px; -webkit-text-stroke-width: 0px; white-space: normal; background-color: rgb(251, 251, 251); text-decoration-thickness: initial; text-decoration-style: initial; text-decoration-color: initial; float: none; display: inline !important;&quot;&gt;Posição:&lt;/span&gt;&lt;div style=&quot;font-size: 7px;&quot;&gt;&lt;span style=&quot;color: rgb(0, 0, 0); font-family: Helvetica; font-size: 7px; font-style: normal; font-variant-ligatures: normal; font-variant-caps: normal; font-weight: 400; letter-spacing: normal; orphans: 2; text-align: center; text-indent: 0px; text-transform: none; widows: 2; word-spacing: 0px; -webkit-text-stroke-width: 0px; white-space: normal; background-color: rgb(251, 251, 251); text-decoration-thickness: initial; text-decoration-style: initial; text-decoration-color: initial; float: none; display: inline !important;&quot;&gt;LIQUIDACAO_ACEITA&lt;/span&gt;&lt;/div&gt;" style="text;whiteSpace=wrap;html=1;fontSize=7;" vertex="1" parent="1">
          <mxGeometry x="270" y="400" width="80" height="30" as="geometry" />
        </mxCell>
        <mxCell id="726MFELe5FYtr4tNDpS5-60" style="edgeStyle=orthogonalEdgeStyle;rounded=0;orthogonalLoop=1;jettySize=auto;html=1;entryX=0;entryY=0.5;entryDx=0;entryDy=0;" edge="1" parent="1" source="726MFELe5FYtr4tNDpS5-61" target="726MFELe5FYtr4tNDpS5-58">
          <mxGeometry relative="1" as="geometry" />
        </mxCell>
        <mxCell id="726MFELe5FYtr4tNDpS5-61" value="ACTC902RET" style="ellipse;whiteSpace=wrap;html=1;aspect=fixed;fontSize=6;fillColor=#f5f5f5;gradientColor=#b3b3b3;strokeColor=#666666;fontStyle=1" vertex="1" parent="1">
          <mxGeometry x="110" y="445" width="50" height="50" as="geometry" />
        </mxCell>
        <mxCell id="726MFELe5FYtr4tNDpS5-63" style="edgeStyle=orthogonalEdgeStyle;rounded=0;orthogonalLoop=1;jettySize=auto;html=1;entryX=0;entryY=0.5;entryDx=0;entryDy=0;dashed=1;" edge="1" parent="1" source="726MFELe5FYtr4tNDpS5-64" target="726MFELe5FYtr4tNDpS5-65">
          <mxGeometry relative="1" as="geometry" />
        </mxCell>
        <mxCell id="726MFELe5FYtr4tNDpS5-64" value="lbd-distribuir" style="rounded=0;whiteSpace=wrap;html=1;fillColor=#f5f5f5;gradientColor=#b3b3b3;strokeColor=#666666;" vertex="1" parent="1">
          <mxGeometry x="210" y="570" width="80" height="40" as="geometry" />
        </mxCell>
        <mxCell id="726MFELe5FYtr4tNDpS5-65" value="&lt;span style=&quot;color: rgb(0, 0, 0); font-family: Helvetica; font-size: 7px; font-style: normal; font-variant-ligatures: normal; font-variant-caps: normal; font-weight: 400; letter-spacing: normal; orphans: 2; text-align: center; text-indent: 0px; text-transform: none; widows: 2; word-spacing: 0px; -webkit-text-stroke-width: 0px; white-space: normal; background-color: rgb(251, 251, 251); text-decoration-thickness: initial; text-decoration-style: initial; text-decoration-color: initial; float: none; display: inline !important;&quot;&gt;Posição:&lt;/span&gt;&lt;div style=&quot;font-size: 7px;&quot;&gt;&lt;span style=&quot;color: rgb(0, 0, 0); font-family: Helvetica; font-size: 7px; font-style: normal; font-variant-ligatures: normal; font-variant-caps: normal; font-weight: 400; letter-spacing: normal; orphans: 2; text-align: center; text-indent: 0px; text-transform: none; widows: 2; word-spacing: 0px; -webkit-text-stroke-width: 0px; white-space: normal; background-color: rgb(251, 251, 251); text-decoration-thickness: initial; text-decoration-style: initial; text-decoration-color: initial; float: none; display: inline !important;&quot;&gt;LIQUIDADO&lt;/span&gt;&lt;/div&gt;" style="text;whiteSpace=wrap;html=1;fontSize=7;" vertex="1" parent="1">
          <mxGeometry x="270" y="520" width="80" height="30" as="geometry" />
        </mxCell>
        <mxCell id="726MFELe5FYtr4tNDpS5-66" style="edgeStyle=orthogonalEdgeStyle;rounded=0;orthogonalLoop=1;jettySize=auto;html=1;entryX=0;entryY=0.5;entryDx=0;entryDy=0;" edge="1" parent="1" source="726MFELe5FYtr4tNDpS5-67" target="726MFELe5FYtr4tNDpS5-64">
          <mxGeometry relative="1" as="geometry" />
        </mxCell>
        <mxCell id="726MFELe5FYtr4tNDpS5-67" value="ACTC104" style="ellipse;whiteSpace=wrap;html=1;aspect=fixed;fontSize=6;fillColor=#f5f5f5;gradientColor=#b3b3b3;strokeColor=#666666;fontStyle=1" vertex="1" parent="1">
          <mxGeometry x="110" y="565" width="50" height="50" as="geometry" />
        </mxCell>
        <mxCell id="726MFELe5FYtr4tNDpS5-78" style="edgeStyle=orthogonalEdgeStyle;rounded=0;orthogonalLoop=1;jettySize=auto;html=1;" edge="1" parent="1" source="726MFELe5FYtr4tNDpS5-76" target="726MFELe5FYtr4tNDpS5-52">
          <mxGeometry relative="1" as="geometry" />
        </mxCell>
        <mxCell id="726MFELe5FYtr4tNDpS5-76" value="" style="shape=image;verticalLabelPosition=bottom;labelBackgroundColor=default;verticalAlign=top;aspect=fixed;imageAspect=0;image=data:image/png,iVBORw0KGgoAAAANSUhEUgAABLAAAASwCAQAAABBKHtEAAAABGdBTUEAALGPC/xhBQAAACBjSFJNAAB6JgAAgIQAAPoAAACA6AAAdTAAAOpgAAA6mAAAF3CculE8AAAAAmJLR0QA/4ePzL8AAAAHdElNRQfoBxYCFB9Rs+nSAAB/QklEQVR42u3dd7wV1bmH8Yfe66EICIKCBQRFrIAFBbFhR02sSawxsaRpbpppXk3RoNEbe2xRwd7ArkhRAyhNsNEFKYfeOeX+YQXhcMous9Y83/nc+7k3UVjzvjN7fnvN2jPVkFQRNdiRdhRQQAta0IICCqhPA2oDzYBaNATWsgFYQQlFrGI9hRRSyGKWUEgh85nLJkspSfGqZgmk7WhGVzrRiY50pCPtqZWBP7OYT5nFzC/+530WW2ZJMmBJsatJB7rRi650Y48cnCfLeJ/xTOV9xrPO8kuSAUuKyY70pTe92ZM6eRrBJqYzhjGM5hPbIUkGLClc1elBXw7iYNonaFSfMZrRjGE8RbZIkgxYUjha0I/+DKJNgse4htd4hhHMsV2SZMCSkqw6PenPIA6iejBjnsGzPMObbLB9kiQpWWpwOP9iMaWBbsu5l2OpbSMlSVISVKcvQ5gfbLT65raM+xiUkQdGSJIkVVIP/sG8KKLVN7fF/IsDba4kScq1ugzmpeii1Te3aVxFCxstSZJyoxvXURh1uPpyW89Q+vujFUmSlE21OJtxqYhW39ze5xLq23xJkpR5jbmcOakLV1//ynAI7TwIJElS5nTkOpalNlx9uW3gPrp5MEiSpKrrxkNsSn24+nIr5mn286CQJEmV15HbKDJWfWt7iX08OCRJUsV14DZnrra5lfAMe3mQSJKk8mvH/7HBGLXd24X309mDRZIkbV89rmKV8amc20aG0NSDRpIklWUQM41NFdwKuZwaHjqSJGlr9mGkcanSDyM9ygNIkiRtrhX3UGxQqtL2KDt5IEmSpC8NZrEBKQPbGq7yZqEkSYKOjDAaZXCbQE8PKkmS0qw6F/qLwSz8svA66nhwSZKUTnvytnEoS9tUDvIAk6RMcxWGkq4aF/IoHS1ElrTkPOrzBiWWQpKktGjFs84y5WB7my4ebJKUOc5gKckG8oIvK86JdpxHIeMthCRJcavHEEqcW8rx87Gae+BJUiZUswRKpN14nK6WIedmc4rzWJJUdd4iVBIdx/O0twx50JRzWcgECyFJUlyqcZWvwsnzdh/1PBAlqWoXMylJCniQgZYh7yZwMrMtgyQZsBSDnjzuE68SYhGn8YZlkKTKcQ2WkmMgz9PaMiREA85ioQveJcmApbBdwIOu/EmU6gyiOS9YCEkyYClM1biGv1PdQiTOAezBsxRZCEmq6IVNyre6/JvTLUNijeEEllgGSTJgKSQteZb9LUOiTeNof1MoSQYshWMHXmJPy5B4CxjAVMsgSQYshaADr9DZMgRhIQOZaBkkqXxcVqz86cTrxqtgtOY1DrQMkmTAUrLtwSg6WYaANOMlDrcMkmTAUnL14k3aWobANORpBlgGSdo+12ApH7rzGgWWIUjrOJbXLIMkGbCUNF0YyQ6WIVhrGcgoyyBJBiwlSQdGspNlCNoKjvAthZJkwFJytGMkO1uG4C3hUN63DJK0LS5yVy615CXjVRRa8Cq7WQZJ2hZnsJQ7jRnJXpYhGjPpzWeWQZK2xhks5UpNhhqvotKJZ2lgGSTJgKV8uomBFiEyvXiEGpZBkr7ND0flxi+52iJEaFda86xlkCQDlvJhMLe63i9S+7Kcty2DJBmwlGt9eYJaliFaRzKZ6ZZBkr7JWQVlW3vG09IyRG0NBzLFMkjS11zkruyqw6PGq+g14HGaWgZJMmApV/7J/hYhBbpwn58mkvQ112Apmy7gdxYhJXajiJGWQZI+5xosZU9PRlPPMqRGCccx3DJIkgFL2dSS8bS3DKmylH2ZaRkkyTVYyl50v8t4lTrNGeoDOSQJXIOlbLmUKy1CCrWllNctgyR5i1DZsAfjqG8ZUqmEI4xYkmTAUubV4S32tgypNZe9WGYZJKWba7CUeX82XqVae26zCJLSzjVYyrRD+ZczoynXjY+ZbBkkpZkXQmVWAybTyTKk3gq68allkJRe3iJUZl1vvBLQhCEWQVKaOYOlTDqAMYZ2feFknrAIkgxYUlXVZgLdLIO+sIBu/ppQUlo526DM+ZXxSt/Qhv+1CJLSyhksZcruvEcdy6BvKKU/r1oGSQYsqfJH0mgOsgzawgf0YKNlkJQ+PgdLmXE2l1kEfUsLVjDWMkhKH2ewlAn1mUYHy6CtWMWufGYZJKWNi9yVCb80XmkbGvF7iyApfZzBUtW1Zzr1LYO2oYT9GW8ZJBmwpIp5mNNTXoF1FH6xwWo2ATVpBDShJQW0SH38fIPDPE0kGbCkijiYN1J4HG1iOpOYzExmMovF2/mnm9ORjuxMN3rQLZUPsxjMo54qkgxYUvmNpneK9nYeoxjDGCZX+uEDNdmD3vShN7ukqG4f0ZUiTxZJBiypfI7huVTs53pG8TIvZ3Qt0Q4cyXEcSZNUVPD73OPpIsmAJZXv+HmL/SPfxw28xDCeYFWW/vw6HMlgTqRR5HWcza4+clSSpPI4kdKot7f5AY1zUsl6fJfXKIm6mhd7wkiStH3VmRRtGFjDreyV84p24a8si7amc6nrSSNJ0vacEWkQWMg1FOStqg25kA8irezlnjSSJG1v/mpahBFgAZcl4DEKNTmPGVFW1wfSSpJUppOiu/wv4WcJCgC1uZhPo6vxJZ44kiSVZXRUF/5N3EbLxNW4PtewNqo6f0INTx1JkrblwKgu+6/QNbGV7sjjUdX6JE8eSZK25dFoLvjLuDDxz4MbxNxo6j3Kk0eSpK3bmaJILvePs0MQFW/KXdFErIM8gSRJ2pqbo7jQrw3ssQEnsSSKuvvaZ0mStjqbsjqCy/x/6RJc5dvxagSVL2JnTyJJsatuCVRhZ9Mg+H24n0P4KLhRf8oAfk9p4LWvwQWeRJIkbWli4DMo67kw6PqfysrgHzhay9NIkqRvCv0BDYUcGnwP9mS2D2uQpCTzFqEqKuzbOzPowxvB92AKBzLeo0iSpFg0DnqB+7gEPq29shrxctAL3Tt4MkmKmTNYqpjvBrzA/b8cyeJoOrGKY3ky2NHX4PueTJIkfWlcsHMmr9Iwum7UYmiw/Zjj1ztJkj63W7CX8zERxqvPZ4LCjViHekJJipffIVURpwc67vc4ltVRdqSYs3g+0LGf5gklSRLAlCBnSqbQPOqu1GdUkH1ZSA1PKUmS9gz0oZY7Rd+ZAj4IsjdHeFJJipW3CFV+Id7SWcdJzI6+M4UczaIAx326J5UkSdODmyEp4eTUdOcQNgbXnyW+MkeSlHZ7BXgL6n9T1aHLA+zQUZ5YkuLkLUKV14nBjfgVfp2qDg3h3uDGfLwnliQp3cYGt7i9Zep61CC4xe4zPbEkSWnWnKLAVl8dm8o+9WJDYBFrd08uSTHyFqHKZ2Bgzyy6iedS2afxXBPYiI/25JIkpde9Qc2KfEi9FH9pCutm7oueXJJiVM0SqFwX7fm0Dma0pQzglRR3a0/GUzuY0W6gRaSvMZKU8guntH37BBSv4I5UxyuYwvUBjbYOh3mCSTJgKZ0GBDTWJVyV+n79mRkBjfZITzBJBiyl08EBjfXXLE99vzbws4BG29cTTFJ8XIOl8hwlS2geyFinsjdFtgx4IZiZoWIKWGHDJMXFGSxtX7dg4hX8xHj1hV9QEshIa7C/7ZJkwFL69AlmpKP90f9XJvKYR5gkGbDk5a/qfm2zNqtGKLN5rsKSZMBSCvUOZJyv8LrN+oYPeSSQkR5ATdslyYCldNmBXQIZ6V9s1rcqUhrEOBuyl82SZMBSuuwXyDin8JLN2sKkYGrSy2ZJMmApXfYMZJx/D2S2JtdVCUMPWyXJgKV0CePmTSEP26qteJHpQYyzu62SZMBSuoQxt3Av623VVt0TyFHmQ48lRcUPNZWtDquD+IVXN963WVvVgnnUCWCcOzHHZkmKhzNY2l5wCSFejTVebdMSng9inN4klGTAUoqEsQLrIRtVhjBWp7nMXZIBSykSwm8ISwJ6KUw+PMeaAEbpDJYkA5ZSZOcAxvgm821UGdbwbACj3MVGSTJgKT06BTDGp23TdjwTwBg72iZJMfFXhCrbcpokfoxdmWajytSChQF8mWrEalslKRbOYKkszQOIV3ONV9u1hHEBjHInGyXJgKV06BjAGIfbpnIYEcAYO9kmSQYspUMIl7w3bVMkVepomyQZsJQOIVzyRtumcniLIuO8JBmwlAwdEj/CBcy0TeWwmkmJH6NrsCQZsJQSLRM/wndsUjSVammTJBmwlA4tEj/CiTapnJI/g1VgkyQZsGTASobJNimagNXCJkkyYCkdmhuwojGF0sQfbT74WJIBS6mQ9FUxxcywSeW0gkUJH2EtGtsmSQYsxa8e9RM+wnlssk3llvzfW3qTUJIBSymQ/EXHPqKhImZ5xEmSAUv51yzxI5xtk6KKo81skiQDluJXJ/Ej/MwmVcCixI+wrk2SZMCSASv/Cm1SBSxJ/Ahr2yRJBizFL/mXOwNWXNWqY5MkGbBkwMq/ZTapApYasCTJgCUvd9u3ziZFVS1vEUoyYCkFkn+522iTKmCDR5wkGbDk5S6GyGC1KsJbhJIMWEqBmokfYZFNiqpatWySJAOWvCB7QQ5L8qvli48kGbCUAsm/3HlLKa5quaZOkgFLKZD8y52Log1YkmTAkgErw+rbpKiq5S1CSQYspUDyL3cFNqkCWhjpJcmAJQOWAStt1TJgSTJgKQXWGxmi0jzxI/S5ZpIMWEqB5L/pbwebFFW1ltskSQYsGbDyr6NNqoBOiR/hUpskyYCl+C03YBmwjPSSZMBSZm1idcJH2Ia6timiOLrcJkkyYCkNlif++N3VJpVTi8T/JKCYlbZJkgFLaZD8WzbdbVI57RVAnC+1TZIMWEqDxYkfYQ+bVE57Jn6EhTZJkgFL6fCpASsaPTzaJMmApWSYl/gRHuAxXE4HJX6Ec2ySJAOW0iH5cwrN2N02lUNBAHWaZ5skGbCUDiFc8vrYpnJVqZpHmyQZsJQMcwMY4yG2qRwONs5LkgFLSRHCsuMjPYrLYaABS5IMWEqKRYl/lju0Yh8btR07BvG8sFk2SpIBS+lQygcBjPJoGxVBhT7zRTmSDFhKjxAC1om2aTtOCmCM022TJAOWDFhJsg9dbFQZmnGEAUuSDFjysldRp9moMpxCbaO8JBmwZMCqqDNsVPDVcQZLUlSqWQKVqR6rqBHAOA/iLZu1VZ34OIgvUjsz02ZJioczWCrbukBu3Zxvq7bhB0Gc5SuYbaskGbCUJhOCGOUZNLZVW1GT8wI5ykpsliQDltJkfBCjbMD3bdVWnEK7IMb5X1slyYCldJkQyDivoKbN+pYrjfGSZMBSMgNWGDdvduIUm7WFwzggkJGOs1mSDFhKl9V8FMhIf+GvYr9VkTAs8xeEkgxYSp93AhnnPr40ZzMHBfOWxnGU2i5JBiylzchgRvpHj+hv+FMwIx1lsyQZsJQ+bwQz0m4+0/0r/TjcI0yS8sU1KyqPT2kbyEjnsTtrbBjVeYdegYx1A01Zb8skxfYxLG3fm8GMdEd+aruAC4OJV/CW8UqSAUvpFNItnKton/p+NeMPAY12pCeYJAOW0imkS2B9bkl9v66npfFdkqTkm0NpQNtpqe7VoZQE1Ku11PP0khQfZ7BUPs8HNdqbaJ7aTtXl9qB+vPIq6zy9JBmwlFbDgxpta+5Ibaf+yq5Bjfc5Ty5JUno1YF1QNwlL+V4q+zQwqNuDpZSykyeXJCnNXgjswr2KzqnrUWs+C6xLkz2xJMXJW4Qqr+GBjbchj9MgVR2qySO0DmzMz3piSZLSrWNwN59KeSBVHfpbcP0ppa8nliQp7d4O8AJ+eWq6c3qAAfhT59AlxcqPN5Xf0ADH/HdOSEVv9uPuAN8sOpQSTytJUtq1D3COpJQ17B99ZzqxMMDOlHKgJ5UkSTAmyMv4fHaOuiut+CDIvswKcM5NksrJW4SqiKFBjroNr0X8tKUmDA/s0aJfeoRSTylJkqAtRUHOlZQyPbgHGJRPI8YG2pFS9vWEkiTpc88GezmfSpvoutGEUQH3Q5Ii5i1CVcw9wY68K2MiW4vVnBfpE+zo7/RkkiTpS7VZFOycSSmz2T2aTuzI1IA7sZ4WnkySYuYMlipmY9BPR+/AGA6Log/dGUPXgMf/JEs8mSRJ+lq3gOdNPp87OTP4HhzNysC7MMATSZKkzY0J/OJewl+oGWz1q3F1sL/l/HKb6dy5JElbOiPwy3sppbxCyyBr35jHI6j+Lz2JJEnaUi3mRXCRn0u/4CrfK9Bntm/58qICTyJJsatpCVRhm7iFa4Pfix15mb/yWzYGMt7q/Iw/UjuC4+c+Cj2JgtWQAlrSggIKKKAOtWkANKA20JTVFFHKcmAjayih8IttCYV2XWnju8BUGS2YQ70o9mQCP+C9AMbZmTsi+f1jKV2Z7ikUzFfwHelIp6/+pyV1Kv1nlbCEucxkFrOYxUxmss4Cy4Albel2LohkTzbxd/6Q6I/6mvyU30USaOF5jvX0SfhVoRN70Z3u7EWnrN7lWMAUJjKZyUwNZiZZMmApy7oxOaKj5yOu5LmEju0QbmKviI6cI3nJ0yeRdqM3B9CDPWmUh685HzCZcYxlvFFLUtrF8Gu2b27D2SNxNd6JRyKr8rt+qUuYOvTm5zyZmDc0rGUk13IczW2NpLTqRUlkF/+N3Eb7xNS3JX9nbWQVLuUUT5yEqEZPfskbrEvs0+qmcCNHUtdWSUqf56O7/Jeynptom/fKFvBnVkVY3ck+YDQBmnEa97AgmId6PMuP2MW2SUqT3hFGgFJK2cC/6Z63qu7CP1kTaWVP96TJq/b8hFGBvgfgQ/7G/rZQUlq8EmkQKKWEFziZWjmtZnWO4rHgX4Oz7e1956/ypi2XMSqCm/ozuI6etlNS/A6JNgx8vn3GdXTL0bzV75gdeTXP9ITJgxb8kNcpjupI+pA/0tXWSorbc5GHgs9XDv2G3bNWwY78jP+moIpTqeHpklPVOJyHWB/tETWa86hvm5XkU1Cqih68m5IbP58wguG8weoM/Xn16MPRHJWab+LH84ynS87swLmcT+fo93MFD3JHEO9ikAFLqrB7OSdFe1vEREYzmgnMoKRSf0JH9qYPfegVxXsFy2skh3qq5MgRXMLxOV4/mF/juI0HWG/rZcBSXHbigyq8nyxca5jKZGYwi1nMpnCbH++1KaA9HenEznRjT5qksFalHMTbnipZV4vT+UlKF4Ev4hZuZYkHgQxYiskNXGkRWEMhSyhlLRuAWjQEmtMiD68dSZ5hnGYRsqwJF3IZO6a6Bmu5lxv5yINBBizFojkf0MIyaBs20ZWPLUMW7ciVnE9jCwGU8DR/YayFUP75XBpV3VJ+bRG0TUOMV1nUkuv4kJ8Yr766pp3IGF5iP0uhfHMGS5n5UBvrU5a1VZ+xOyssQ1YU8GN+4k3obXiZq5hgGWTAUuj25W3nQ7UVZ/CIRciCRvyQX6byJxPlV8pz/JqJFkL54aP/lBnz6cTelkFbeIWrLELG1eIKnmAQdS1FmaqxKxfQgbdZYzGUjwNQyozWTKepZdA3bGRvplmGDDuWv7ObZaiAlfyZIWywEMotb+ooUxbyU4ugzdxovMqwPRjBs8arCmrM9UzhBAuh3HIGS5k8ml6kv2XQFz6gJ+ssQ8Y04xouSdUT2jPtZa5kimWQAUsh2okpNLQMAko4jDctQ8YM4l+0tQxVVMSt/I8rspQb3iJUJs3mVxZBANxkvMqYNjzG08arDKjJZUxynl254QyWMh3Z36CvZUi9mfRgtWXIyGf0BfzVx4hmVCkPcCWFFkIGLIVlVybQwDKkWgmH84ZlyIDducMvLFmxgEt5wjIom7xFqEz7kCssQsoNMV5l5Ovv5bxrvMqSNjzOgz6oVdk9haXMe4TTLEJqTWZ/1luGKmrF3RxrGbJsDmcz0jLIgKVwNGMi7S1DKq1hX6ZbhioayL/ZwTLkQAn/5OdstBDKPG8RKhuWcTYlliGVLjdeVVE9hjDceJWza+BljKKLhVDm+S5CZcds6rt6JIWG8T8WoUr25BWO9d5CTrXjPGYz2ULIgKUwvM4hdLQMqTKTQa6+qpIzfN5VXtThFJrzivPuyiS/Jyl7WjGBdpYhNdbTl/GWodJq8id+4WdyHo1mMAssgzLFNVjKnkWc6uLRFPmh8aoKWjCCq4xXedWH9+hnGZQp3iJUNs1jNUdZhlS4hWstQqX14hV6Woa8a8CZbGS0hZABS8n3FrvR3TJEbwzfpdgyVNKZPEWBZUiE6vSnLSNcjaWqc0Ja2VaP1zjAMkRtAfsy3zJU0q/5g5/ECfMCg1llGWTAUtLtwNt0sAzRWkc/3rYMlVKTf3KRZUigKRzLHMugqnCRu7LvM45mhWWIVAnfNV5VUiOeNl4l1J68RS/LIAOWku59znKFTqR+ypMWoVI6MIajLUNiteE1+6OqcJG7cuNDlvthFaFb+K1FqJTdeIPOliHR6nA6n/iEdxmwlHRvU5uDLUNUnuU8Si1DJfTgVZ/YHoDqnMR8JlgIGbCUbK/R1lUNERnLCWywDJXQi5doZRmCUI1BrOQtCyEDlpLtefagm2WIwkSOZKVlqIS+vEgzyxBQxBpIPV62EDJgKclKeYoD2MVCBO8jDmeJZaiEw3iORpYhuFBsxJIBSwlXzFMcRnsLEbQ5HOaDRStlAM9R3zIEGbEa8JJlkAFLSbaRYfRjRwsRrPkczkzLUAkH8yz1LEOg+gBvWAYZsJRkG3jUiBWsefTjI8tQCT0Z4c3BoB3GOl8ELQOWkh6xnMUK01wO52PLUAndeYXmliFw/VnEOMug8vFdhMqXprzIfpYhKLO8OVhJuzHSBzNEoYTzuN8yyIClZGvEU/SzDMGYST9mW4ZK2IlRztdGo4jTeMIyyIClZKvDg5xiGYLwPgOZZxkqoTGj6G4ZIrKeIxhjGbQ9vuxZ+bSB07nLMgTgbQ4xXlVKLR4zXkWmLk/RxTLIgKVkK+YC/mYZEu5ZDqfQMlRCNW6nv2WITguG09IyqGz+ilD59xJr6O/t6sS6h7N852Al/ZYrLUKUmnMAD1FsIWTAUrKNYTKDqGUhEqeUa7mCEgtRKWczxC8O0dqJnV3sLgOWkm86LzLIxzAmzHrOY4hlqKTePE5NyxCx7pT6bHdtm9+ulBxteYZ9LENiLOFk3rQMldSa8bSzDJEr4XieswzaOhe5KznmcxhPWoaEeJd9jFeVVotHjVepuILezy6WQQYsJd8qTuZ/XDiaAI9yMHMtQ6X9jb4WIRWa8Tj1LYMMWEq+Uv6XI1hoIfKoiKs5jTUWotK+y2UWITV6cKdF0Na4yF3JM5uH6eOrRfLkU47jIctQpQvuU/4iNlW6s4y3LYO25CJ3JVNdbuASy5Bzr/BdFlmGKmjIu3S2DCmzib68Yxm0OW8RKpnW80NO9OnhOVXMHxlovKqim4xXKVSLB2loGbQ5Z7CUZK35N0dZhpyYzTmMtAxVdBKPW4SUupsfWAR9k2uwlGRr+A/LONzjNOuGcSwfWIYqasfz/qIstXoynamWQV9zBkvJ14t76G4ZsqaQi3nUMlRZdV7icMuQYkvZi3mWQV9/JEhJN559+QObLERWPEMP41VG/NR4lXLNuc9rqr7mrReFoJjXeZoDaGMpMmoh5/NrVlmIDOjOw36epl4nVjLWMuhz3iJUOGrxC35NXQuREaXcx09YaiEy9FV1NAdYBrGW7sywDAJvESokm/gze/pq1YyYwUDOM15lzI+NVwKgPv9y4kJffu+SQrKM/zCBA2lmKarwHftazvQ3gxm0E49S2zIIgF2YyUTLIG8RKkz1uIqrvFlYKc/yY2ZZhowawUCLoK8spavvU5W3CBWmdVzDrtxOiaWokPc4hEHGqww713ilzTTnRosgZ7AUtn35C/0sQ7nM4ffcS7GFyLCWTKPAMmgLx7laVM5gKWTjOJwBrnfYrkKuZjfuNl5lwZ+MV9qKIdSxCGnnIneFbgZ38DFdaWEptmoV13E6r1JkKbJgL/7l11RtRXNWMsYypJu3CBXLV4XT+RVdLcRmVvJ//J3FFiJrXvUWtbZ59u3qUvd087uX4lDMf+jO8UywFF9Ywu/pyNXGqyw6xXilbWrMny1CujmDpdi+MhzDlal/J9xc/s4drPVwyKq6TGVnywAUsxJYzzpq0Bio5yNUAChhP7/yGbCkuOzFlZyR0kWmb3Mzw9joQZB1v+TalMaGT5jGLGYyi88oZDHLv/XP1KeAFuxABzrSkS50S2nkepNDKfVUMWBJcdmBSzmfHVK0xxsYys3819bnREs+oVGq9vgDxjCWiUxlTYX/3Rp0oQf705teKXvm/ck84ckiKT61OInnKKI0+m02v6a1Dc+hv6bgqPp8m8PtnEzLDNWtLofwZ8ZTkpLqTXals6R4ted3zIr2A3wN93OEH+I51oY1KQgHU/gNe2apgq05nxdT8eXnO54ukmJWncO5ncKoPrhLGMn3U3abKiluijwUfMqf6JaDOrbkEt6JvJbTfd6kpPjV5jgeYGUE0WosP6WjDc3bnOj6aONAMc9yPDVzWs+9uYUVEUescz1lJKVDPU7mbhYGevkbyeXsaBPz6rZobzffSpc81bQxP2V2pHX9hFqeNJLSozoH8CfeDeZDegkPcV6qfhWZVDuzMcIQsILf5/2tirU4iw+ijFgXetpISp8dOYd7ErwIvojR/Jb9XceRGLdGd/lfzXWJeWV1Tb7HzAjnsDx/JaVWJ77HfWxK0EXvFX7PABexJ0yLyH4/WMw9tElYjWvzM5ZHFrEGe+pISrclifgw/jv75XiZscrrt1Fd9kezX0Lr3Io7KI6o0m956kgyYOV/O9hGJFQdFkS06uryhD8/7SCmRBSxPKtTx8cTSlJ5nRPNzwyeoStDKEn0GMeyD7+P5r2aP/X0kZRmzmBp26rxfhRzKWu5PKCq78mkSB4MvIenULo4gyVJ5XNsFJfId9iLIQGNdwoHcXsU8fxyTyEDliTp2y6NYB9u52A+CmzMa7iI77Am+NqfQ1NPIgOWJGlz7RkQ+B6s5wdcFOiapofZl+mB178eZ3gaGbAkSZs7P/CHRc6nL3cHPP7p9ObVwI+hCzyNDFiSpG+qwXlBj38KvRkfeA+WMZDbgt6DfdjHU8mAJUn62tF0CHj0r9CH2RF0oYhLuCboPXAOy4AlSfqGkF/X+xzHsTKSPpTyey5N+PO7ynImDT2ZDFiSpM+14ehgxz6Uk1gfVTdu5TyKAh17I99KaMCSJH3prGDfDTmU77Ipun7cz4WUBjr2czydDFiSpM+dHui4X+AciqPsyD38ONCRH0JbTygDliQJdqFXkON+mRPZEG1XbuHqQK+6p3hKGbAkSaHOX03l1MjWXm3pem4OctyneUoZsCRJYQas+RzDiug7cwVPBTjqPkE/8kMGLEnKiN3oEdyY13Icc1LQmxLO5L3gRl3Nm4QGLElSiPNXP+TdlHRnDSeyxGNKBixJCs3JwY14CPemqD+zOTu4B4/uz46eWAYsSUqztsHdIBzDz1PWoxH8MbARV+MoTy0DliSl2dFUC2q8qzkvwgeLbs8feCOwERuwDFiSlGqhXQgv5aMUdqmE7wX2tsUB1PLkMmBJUlrVpH9Q432M+1LaqZlcHtR4G9Pb08uAJUlpdRBNAxrtisBCRmb9mxeDGq83CQ1YkpRaRwc12p/waaq7dRGrPbZkwJKk5BsY0Fjf4J6Ud2tWUL8m7OFLnw1YkpROjdkrmLEWczmlqe/YP/gwmLFW42BPMQOWJKXRQdQIZqx3MtGGsTGoZ4D1sWEGLElKo3B+57WS39ouAJ7mZQOWDFiSlGR9gxnpjSyyXV/4ZTC3Sveike0yYElS2tRk/0BGupwhtusr43g2kJHW4ADbZcCSpLTZi4aBjPSvLLNd3/CbYOawvElowJKk1AnlBuEqbrFZm5nI8wYsGbAkKZlCuUF4Byts1hb+FswxVs1mGbAkKV3CeAZWkeuvtuJ13glinE3YyWYZsCQpTeqwaxDjfII5Nmsr/hnIOHvYKgOWJKVJV2oFMc47bNVWPRrIwn8DlgFLklIljAvfTF6xVVu1jgeDGGd3W2XAkqQ02TOIUd5Fia3ahjsNWDJgSVLShLHE/WEbtU0TmRrAKHelnq0yYElSeoQws/AOn9ioMgwNYIw16GqjDFiSlBaN2CGAUT5ioyKoTxcbZcCSpLToFMQon7BRZfogiJuEnWyUAUuSDFjJMZ2ZNmo7RgQwxo62yYAlSQas5Bhum6KokTNYBixJSo0QXmDygm3arlGsNmDJgCVJXvTKq4jRtmm7NvBW4sfYweuwAUuS0qJj4kf4XgBzM0mQ/Bham7a2yYAlSQasZBhrk8plVABj9CahAUuSUqEuTQxYkXg7gJcJ7WCbDFiSlAYtAhjje7apXFYxI/FjLLBNBixJMmAlwQY+sk3lNNnjTQYsSUqC5M8oTKHINpXTJI83GbAkyQteeUy3SeU2zeNNBixJSoLk37LxJTnlN8vjTQYsSfKCF0doMIyWnzNYBixJSoVmBqyILGaNAUsGLEnKv/qJH+GnNqncSlmQ8BHWs0kGLElKg9qJH2GhTaqAJQkfXx1bZMCSpDRI+gWvlGU2KaI4WtsWGbAkKQ2SfsFb7lOwogpYzmAZsCTJgJUAa2xRVPWqTTWbZMCSpPglfUZhoy2qkA1GehmwJMnLnQHLgCUDliRFp5YBKyrJr5ersAxYkpQCpQkfXw1bFFm9/NGCAUuSUmBTwsfnDaWKSf780AabZMCSpPglfT7BG0qx1cubvgYsSUqBpM9gGbAqpm7Cx1dMsU0yYEmSASvfmvvcpArWK9m8QWjAkqRUSPoNm1o0skkRBSxvEBqwJCkVViV+hAU2qQJaJnx8zmAZsCQpFVYkfoStbFIFtDBgyYAlSfm3MvEj7GCTyq1e4uPocptkwJKkNEj+LcJONqncOib+JwFLbJIBS5LSIPm3CDvapIjCaKFNMmBJUhosTfwIO9ukiGplwDJgSVIqLEz8CHvYpHLrnvgRLrZJBixJSoPPEj/C1v6OMKIw6gyWAUuSDFjGhsCucV0NWDJgSVISrAngd4T72qZy2YOGBiwZsCQpGZI/h9XHJkVTpzm2yYAlSekwN4Dg4Kd3efQNYIyzbJMBS5LSYUbiR9iMPWxTFAFrEWtskwFLktJhZgBjHGCbtqtLAI8ZnWmbDFiSlBYzAhjjUbYpihoZsAxYkpQaIVz0DqW+jdqOoz3WZMCSpOT4OIAx1vUm4XY05LAARjnLRsWqpiWQAGjLPuxDg0SM5SWmMvGLbZmtyYNCFgXwrPTTeMpWlWEQ9QIY5QwbFatqlkCptiO92Ide7EObhI5wNhOZyHuMZYHtyqFX6Zf4Ma6iNets1TY9yQkBjLJNEG8OkAFLKpfqdOdQDqUPrQMa9ceMZhSjmU6pLcy6m/lRAKMczKO2ahuasJA6iR/lYt8qGS9vESpNatCTQziMvjQLcPSd6cy5wBJGM4pRjKPIlmbN+0GM8jwD1jZ9J4B4BZNslKSwdeSHPMMKSiPaljGU79PW5mbFIUEcA0W0t1XbMC6IDt5goySFqQa9uIZxlEQVrTbfPmEI/altszOqCcVBdP93tmqr9grk7D3PVkkKTXPO4WGWRRysNt9W8Bhn0djGZ8wHQfR9LrVs1VbcEch5u6+tkhSO+gzmGTakJlp9c1vPM5xjzMqIBwPp+Vm26ltasS6QW7z1bJakMKLV6TweyEdrNre1PM4ZNPSAqJIrA+n2u7bqW/4YSO8m2ypJSVeTQTzE6tRHq81j1jCOo4YHRyX1DabTPtF9cw1ZEkjn/mWzJCXZLvyZTw1U29jm8Wc6e5BUQgM2BdLj0TZrM/8TzNl5ts2SlEx1GMxLUf9CMFPbOC5MyGuAQvJ2MP092mZ9pQmFwfStk+2SlDx7MiSgD9JkPDfrFvb2wKmAvwYUoH0rx5d+H0zX5tssSclSjf4847xVJbdRDHZdVjkdH1Bfz7RdALQLaCXmI7ZLUnLU4RymGJOq/GjSq2jqwbRdzQN52Ojna+28BQzwQEDn4WW2S1IytOXaYH4dFMINw7/4mpXtmhRQR39vuzgwqJltHzIqKQF2596UPjo0m9smHqKHB1cZbgiom+vYNeXdqsmEgPq1xFv1kvJtD+4L5gfz4W0lPEMvD7JtGBhUL19P+VL3q4Lq1oOeXpLyqSv3UWQMykHI8nbF1tRlTVCdvCDFveoY2IOGfcWRpLzpztCAFhmHH7KepKcH3bcMD6qLy+mY0j7VYGRQnSqmlSdX7KpbAiVSZ4YykcEeoTlTjRMYz1OuydrCC0GNtgn3p3Rlzy85OKjxTmCRJ5cBS8q1Av7BVAb76MQ8hKzjeZe7aGspvtCCwwMbcV/+J4V9OoDfBTbi4Z5cknKrLr9gmTfs8ryt5hqfqgQcxfwgfxt6WMr61JwZwXWpt6eXpFzOn5zJLONNYl7jcX6qf0Zej5uDfVvAQnZMUaeqMyK4Dn3mIxok5U4fxhlrErZN4siUHo378H7QnXuLOqnp1R8D7M8tfuBLyo2W3O27BRO6Pc1OKTsaa3B1BA+1vT8laxi/E+Qnx6F+6EvKvmqcw2KDTIK3tVxD7dQcjx14PZK+XZOCbh3M+iBvv3uDUFLW9eJtI0wA22T6puJ4PJvlET3Z7HuRd2t3CoPszBA/+CVlV1OG+JT2gC7X99Ey6uOxCQ9E1rMiTo+4X+2D/UnMQX74S8qmQUH+BD7d22LOi3ZlT3/mRtixDRwdab/a8nGgPZnjE/4kZU8z7jWuBLqNiPARAHW5IdofWayN8pegbZgabEf+4gVAUrYcFeVcQXq25VwY1fHYjXej7tcGTo7sE2QnPgy4H3t4CZCUDU25x4gSwfZYJOuxqvPTIH+HVtFnu383os+Q3ZgTcC9GehGQlA1HM89wEsm2kJOCPx7b80pKulXMzyP5DOnLkqA7cbaXAUmZVofrKDaYRLUNpXnAR+TgQH/kX9ntTmoF/ylyKmsDv71e30uBpMzalQkGkgi32YH+5LxpdI9kKN8PFEIOxNW5JvifItzspUBSZp3DKsNItOt7rqF6YMfjQXyS0m7NYf9AP0Ma80QE9d/bi4GkzGnE/caQyLenA5oZqc31qb5VvZbzA/wU2TfYp159cxvr5UBS5vQK+gfVbrHdKoz9kQzl2x4N6lZhda5iYxR1P80LgqRM+X4KfgLv9vm2kZ8m/AnV1bicdXaKUkqZF8zjR3fi1UhqPsNXPEvKjFrc4oUsdbcKmyT2eGzLC3Zos+3fFCT8M6QGV0S0evMyLwqSMqE1I72EpXCbRpdEHo+nBv70pGw9y+ysBM867sPbEdW6kIZeFtKmuiVQlj4aD7YMKbQ74zguYWNqxG0MS/xsTT604n7eoXcCR1bAEN4J9hePW/N/rPaAk1RV33OlS8of3JCkmyF9mWFPytyKuY9OCepYQ37JishqvJ42XhgkVU0NhnjJcuMOaifgaKzFnymyG+X6icK/aJ+AjtXjShZGeT4ohapZAmVQfR7ieMsg4E1OYXFeR7A797OvjSi3DTzADbyft7+/ORfzY3aIsLIb2Y1ZHmCSKq817zgX4PbVNpOuefzq+EPW2IMKbyU8y5F5WJu7OzdF/LaHW704OIMlVcUePJeolRzKv6UMYkwe/t4duItjLH+lzeIu7uHTnPxd9TmVC+gbcTXX0zlHtZQBS1HqzVO0sAzawgbO5LEc/51HcbdLiqushLEM4xE+y9rfUIcjGcwJNI68kjfyEw8nA5ZUWd/lbupYBm1FERdzV87+tobcGOS79pKqmDcZwXAmZfRPbcNRHM2RCX4sbeasYRcWeiAZsKTKuZwbPZK0TaX8hj/n5G86kPvpbMGzYD5vMIZRTKa4Cn9KB/rSm0PYM0WfF9dztYePAUuqnF/xJ4ug7biFyyjJ6t9Qk1/zK2pa6qxaw1QmMpnpzGI2G8txhWlDJ3ZlT3rQndapq9dSurDUw8aAJVXGdVxlEVQOwziTTVn707twPwdY5JwqYT7zKaSQQtaz5ou4VY2mVKcFBRTQkp1SvnTgMm72QDFgSZU5em7gCsugcnqek9mQlT/5HG7xTW9KnGnslcUvFUo830WoyqrBncYrVcAxPEHdjP+pLXmSe41XSqArjVfp5gyWKqc2DzDYMqiCRnAS6zP45x3JPbS1rEqgpznBIhiwpIqqwX84zTKoEl7gJNZl5E+qx3X82M8wJdJGuvOhZUg3bxGqMvHqAeOVKmkgT1IvA3/OvrzLZcYrJdRNxiv58aSKh/K7OdcyqApe5gTWViniX83vqGUhlVCz2ZPVlsGLpVSxSP5P45WqqD9PVeHn+zvxKn8yXinBfmy8kgFLFXU9l1gEZSBi/Ycalfo3B/Meh1hAJdgDPGMRRCU/4pRW1/pYUWXIHrTiuQr+O025iz9k4VEPUuYUcgJrLIMMWKqIX/E7i6CM2ZcavFaBf/5IXqS3ZVPCXcxYiyADliriu/zTH0Uoow5ldTkvRnX5E7fS2JIp4V7lZxZBBixVxJEM9WhRxg1gBpO2+0/tzQucZLxX4i3nKFZYBn3ORe4qj5486q+2lAXVuJvjtvMZ9QvepqulUgAuZo5F0Ncfb9L27MhYdrQMypK1HMZ/t/HfdeBeDrNECsK9nGcRZMBS+TVnNLtbBmXRfA5g3lb+88HcRjPLoyDMoCcrLYO+5i1Cla0uTxmvlGVtefxbr89pxsMMNV4pEEWcabySAUsV8U/6WgRl3X7cv9mn0eFM5HTLomD8nrcsgjbn78JUlp9wtUVQTnSlJq8CUIfruZWmlkTBeI0LKbUMMmCpvAbwb+c4lTMHM4NJdGU4J7s6VAGZywDfPahv82NM29KFt10Bo5zawK1c4qtwFNhReyhvWwYZsFRejRhLN8sgSWW6kDssgrbGG0Da+nHxoPFKkrbjfuOVDFiqiGsYZBEkqUzjudAiaFu8RahvG8AIo7cklWkBB/pqHBmwVH6teZc2lkGSyrCWfrxjGbRtzlNoyyPiAeOVJJWpmO8ar2TAUkX8lv4WQZLKdCVPWQQZsFR+h/NriyBl0Ed8h0WWITI3cLNF0Pa4Bktfc/WVlFm38xPWsA+v0sRiROMxTqPEMmh7nMHS12H7XuOVlDGLOJ6LWANM4HjWWZBIvMxZxisZsFQRP2SgRZAy5AV68sxX/99ITmCDRYnAWE5ivWVQeXiLUJ/bmYk0tAxSBqzjl9xE6Rb/6ckMpYbFCdp7HM4yy6Dy8XQXQHWeoItlkDJgHAN5biv/+TQWcZzlCdgH9GeJZZABSxXxM863CFKVFXMt52zzV4PjWMFA7xsE6mMO4zPLIAOWKqIbD1HTMkhVNIPjua/MBdBvsYhjjFhBxqsj+NQyyICliqjJM+xkGaQqGsYgPtruPzWOjznenxcFZhpHMM8yqGI8zfUr9rMIUpUUcgqnsbxc/+yDnEeRJQvIBA5x9koV51R12nVhEnUtg1QFL3NeBS/AgxhGHQsXhP9yFEstgyrOGay0B+zbjFdSFazjMo6s8PzGM5zm05SC8Ar9jFcyYKnizqKfRZAq7V325eZvPfGqPJ5mAIUWMOGe4DjWWAZVjrcI06w502hlGapkJYtYQiGFFLKR9awDVlFKY6AO9alJCwoooICWNLNcUSnhr/yWjVX4E3bjeXa2kIn1D37qS3FkwFJl3M4FFqHC5jKJD5nFTGYxi1UV+Dfr05FOdKQjXehBR8++oM3mHEZW+U9pxTPsbzETqJgrudkyyIClyujNm94iLrcPGMsEJjEpYy/KaEx3urMPvdnDPgTnAX7Eioz8SfV5iOMtaMKs4bs8bRlkwFJl1GI83S3Ddr/FjuNNRjGGxVn8W5rRm94czEE+7jUIy7iERzL459VgCJda1gT5jEGMswwyYKlyLmOIRSjDIl5gOC/mdBlyE/pzNEfRzvIn2Cucl4VHTv6QG6ltcRPhPU5ktmWQAUuV04yPKLAMWzWHYQzjv3lc3NqTUzmNzrYicTbwP/wjS0dGb4bR1hLn3X1czDrLIAOWKusGrrQI37KAoQxlbKV+dJ95vTiN032JUYJM5kwmZ/HP34Fh9LXMebSRK7nVMkiqvJ1ZT6nbN7ZiXmIwtRLXqer0Zygb7VDetxJuo37W+12T66x13rZP6e3FQVLVPO6H6WYfq9fQIdH9as1VzLBTedzmckTOun0Wa6x4HrY3aO2lQVLVHOKH6VfbJM4NZGlxDQbzth3Ly/Zwjh8RuyeTrHpOtyL+4C94JVX9ptM4P1AppZQXOTK4NYgH8xQl9i6H23LOykOf63Kjfc7ZNtOVb5Iy4Ww/UCnlZQ4KtoN787QdzNlto/z9yOBI5tuBHGwP0sTLgqRM3Gj6IPUfqKNzuJ4mW3ow1EtjlrdNXEONvHa5KQ/Zh6xuK7jQi4KkzPh+yj9Qp3FMNL08lAleIrO2TaVnIrp8AavsRpa2V+jkJUFSZtTikxR/nC7lqsielV2dc1jghTIrj2RokJgut+Uxe5LxbRkX+hRISZn8Npze51zdGumT6xvzF5+TldFtPgMT1+XTDNIZ3Yayg5cDSZmcv0rrs5SmcGDUne3OW140M7Q9RotE9rgJQyi2PxkJ0Kd4MZCUWRen8uN0Pb9NwUt0a3Alq714VnFbyfcS3eWDmWaXqvjDhSE09lIgKbPqMCeFH6jv0DU1He7EK15Cq/Tr0p0DOIt/wXJ7VcnthRR9Gkhy/iqLWxF/TuDbBbOpOr9ggxfSSmwb+XWeH8lQfi25lU32rILbhwzyIiApO5feD1P2gTqbQ1PZaV+zUvFtBn0C6/JuPgetAtsqrqGOFwFJ2XFSyj5SH6Vpantdnzu9qFbgkQz/R/0g+3wkk+3fdrd1/INWXgAkZc+oVN0a/Hnqn3BzAeu9uJZj+4zjAu5yDc5N3cx0RbYN/B87+uEvKZv2T9GH6mIG2HBgH2Z6id3ONoI2wfe5OoP9beFWn3w3lM5+DEjKtkdT87E6ng62+wstec0L7Ta31RG9ha4GZxmyNnsYw/108QNAUvbtQlFKPlifTtALTpKgNvd5ud3q9nZ0F+DqfJcpdpaV3MBOnvqScuOWlHy03k5Nm72FalxDiZfdLdboXRfto2f7MjQ1X6e2tqLuGpp70kvKlaasScWKiytt9Tac67OxvrF9zEGR97szQ1iRur5O5NwUvLFBUqL8OBVzEufa6DIczVqjFaWUch+NUtHxRlzI1NQ8iGEo/T3JJeVe/I+d3MDJtnk7+rEq9eFqMSemqufVOZx7I+/7OC7y3YKS8uOg6C+baznaNpfrSFiW6nj1PDuksu8NOYdXKI6un4v4Jz09rSXlzz3Rx6t+NrmcerI0peFqLZem/NGzHfgV0yPpZiF3cqQ/aJGUX00iX+C+gWNtcgXsz8oUxqtJ9LD1AOzM5YwK+FelaxjKIJeyS0qCH0X+OMGTbHEFHZqy5e5FXEst276ZdlzMiMB+WTqdGznSFzZLSo6YF7gX810bXAlHpeihDTM52IZvQ2NO4zY+SPzz9p/mEjrZLknJckDUF88f2eBKOiMljx6919+XlUNbzuQOPkpY71YwnN9wmHNWkpLppogvnjfY3iq4OvpwVchg21wh7TmbmxiV58c6zOZBLqUHNWyIYlDNEkSqJvNoHem+PcuJFNviKriFH0a8d69wHvNscqXntHrRi14cQMuc/H0b+ZjxTOV9/stnll8GLCXfQEZEumfv0I+1NriK8ftZBka6b9fzS0ptcUai1i50Zhd2YRc60yxjf+56ZjGTWcxkBpP5xC9LiveDVnH6TqT7tYATjVdVVsQZvEOXSL80Gq8yYz7zefOr/685nWhNS1p88b9b0pomUEbwKmEFqylkMUsopJBCFjOHmSywtEoHZ7DiVJeFUS7x3cThjLK9GbEnb9Egwv2awS42N8fqU4eaX7zncROrgdVssiySYjTY3w5qu86I9CjZ19ZKyr/qliDSS2eMHuCftjaDHuYfkX69kKS88xZhjJrwGXWj26sP2Yc1NjejajEmwvmemeziOixJ+eYMVoyOjTBeFXGO8SrjNnEGq6Lbq070srWSDFjKvEER7tNvedvGZsEn/CTCvfImoaS88xZhfGqyKIPPrEmGkRzu03Ky5jFOjmyP/CWhJAOWMq4fr0a2R2vYk1k2Nmta8H6OntqdO3sy1cZKyidvEcYnvhuEvzZeZdUSroxun46xrZKkzPowsqcave2rX3Pg6ciOmldtqaT88hZhbPbg/aj2p4j9eM+2Zl0HpnzxJO44bKIlK2yrpPzxFmFsjotsf/5qvMqJOfwuqv2pxQCbKsmApcyJa+3JfK61pTnyT6Z7JkiSAUtbU5cDo9qfq1ltU3NkEz+Oan+OdgGEJAOWMqV3VM9wf4cHbGkOvczzEe3NDvS0pZIMWMqMwyLal1Ku8I1yOfZTNkW0N4fbUEkGLHlJ2dJTjLWhOTadf0e0N4faUEn54yqFmNRnGbUj2ZdSejLRluZcBz6kTiT7soICX7AkKV+cwYpJ32jiFQwzXuXFHO6MZl+a0MOGSjJgqer6RbMnxVxjO/Pkz6yNZl8OsZ2SDFiqusOi2ZOhTLOdebKAOzwjJKmqXIMVj7qspFYk+7IP79rQvNmRGZEcSUtpSYkNlZQPzmDFY69o4tUrxqu8msejkexJc7raTkkGLFXNvtHsyQ02M8/+Hs2e9LaZkgxYqpr9ItmP6Qy3mXk2ntci2ZNeNlOSAUtVE8sM1k0+vz0BbvaskKSqcJF7LBqynBoR7Mda2rHcduZdTWbTNoL92ERj1ttOSbnnDFYsekURr+Bh41UiFHFfFPtRi+42U5IBS5UXy62QO2xlYjpR4pkhSQastItjMe9k3rKVCTEjkoXuLnOXZMBSFcRxI+QBG5kgDxqwJKmyXOQeh5qspk7we1HKLsy0mYnRjM8ieH34JhqxwWZKyjVnsOKwcwTxCt4xXiXKMl6MYC9q0dlWSjJgqXL2iGIvhtpIO5IFu9tISQYspfcSUsowG5kwT0Vxc82AJcmApUqK4ZW2E5lrIxNmJSMj2IvdbKQkA5YqJ4ZbhL6B0K5khzNYkgxYqpRqUXxHN2DZlWx9/fDX0pLycGlW+NoxL/h9WEELimxlAs2kY/D70D6CM0RSYJzBikHHCPbhJeNVQnmTUJIMWCnVIYJ9eN02JtQbEezDzrZRkgFLFdc+gn0YbRsTapRniCQZsAxYYVrNFNuYUJ8y2zNEkgxYBqwQjXUFVoKN9gyRJANWGu0Y/B6MsYkGLM8QSQYsJUv4i9zH2cQEGx/BGeIDaSQZsFRBdWkR/D5Mso0JNoWS4M+RAtsoyYClimkX/Lfz5b6FMNHW8Enw++AqLEkGLFVQy+D3YDKltjHhHQqdq7AkGbBUQc2D34OJNtGAlWXeIpRkwFIFNQt+Dz6wiQk3za8hkmTASpvwLx0zbWLCzfJriCQZsAxYXr5lBDZgSTJgKeWXjtk2MeEWsdqzRJIMWAaskCwO/uKdBqGHYNdgSTJgKWUBa44tNGB5lkgyYMlLR2YtsYV2ybNEkgFLSdPAS7fs0nY0sYWSDFiqmNqBj3+xLQxAoWeJJBmw0qWWl25lXegzWAYsSQYspezSsdQWGoOzro4tlGTAUroC1lpbaJeyrqafdZIMWKqY0G8RbrSFdsnzRJIBS0kT+gzWBltolzxPJBmw5IUjs5zBMmDlgjNYkgxYMmDJLnmeSDJgKZ+qBT7+ElsYgOLg96CGTZRkwFJFbAp8/N66CUH4jzlwplSSAUupunD4hKIQ1PY8kSQDlgHLS7eMwQYsSQYsVUHotwgNWAYsA5YkA5YSJ/Qf0Ne1hQasrCuOYJm+JAOWcir0GaxmtjAAzQMfv/NXkgxYStmlo8AW2iXPEkkGLCVN6DNYBiy7ZMCSZMBS4qwPfPwtbKEBK+vW2UJJBixVzHIv3TIGb0ehLZRkwFLFLAt8/G1toV3yLJFkwFLSLA18/O19S1wAOnmWSJIBK11C/25ei3Y2MeHq0cqAJUkGLANWWDrZxMR3qJpniSQZsNIl/O/mHW2iHTJgSTJgyUtHZnW2iXbIs0SSAUvJEv4MVnebmHA9gt8DH9MgyYCl1AWsHjYx4fYMfg8W20RJBixVzPzg96AjjW1joj8lwg9Yc2yjJAOWKmYpqwPfg2reJEy0zjQIfA9K+NQ2SjJgqaLmBb8He9nEBAv/Fu5nwb8SXZIBS3kwN/g96G0T7U4WeYNQkgFLqQxYfWxigvU1YEmSAcuAFaKO7GgbE6p+BDdw59pGSQYspfPycZBtTKgDqO0ZIkkGrDSK4QZIX9toZwxYkgxY8vKRWQNtY0IdGcE+fGwbJeVaNUsQgdqsoWbwe9GZT2xl4jRlcfDHVjENWW8rJeWWM1gx2MjMCPbCOawkGhBBdJ9pvJJkwFLlTItgH46yjQl0tGeHJBmw0uv9CPbhcOrayMR9PsQwrzjdRkoyYCm9l5AGUcyWxKU3bSPYC2ewJBmwVEnvR7EXp9tIO2LAkhQHf0UYh4asjKCXa2nFGpuZoK9fc6OYwWrOMpspKfcfoYrBauZFsBf1OdZWJsghUcSr+cYrSQYsVV4ct0HOsJF2I8Mm2EhJBixV3rtR7MVxtLGVCVEvkhVY79hKSQYsVd5/o9iLWpxtKxPidJpGsR/jbKWkfHCReyw6MDuK/fiELpTazgQYTe8o9qM1i2ympNxzBisWc/gsiv3YhcNsZgLszkFR7Mcs45UkA5aqJpZbIZfYygT4YSSz2+NtpSQDlgxYACezi83Ms2Z8L5I9cYm7JAOWqui/kexHDX5sM/PshzT0a4ckVYWL3OPRMprVJqvp4MMh86gOs9ghij0pojmrbKikfHAGKx6LmRnJnjTkYtuZR2dGEq9ggvFKkgFLVTcymj25kka2M09q8Ito9uU12ynJgCUvJ19ryQ9tZ56cy27R7MsbtlNSvrgGKybtmRPNvhSyMyttac7VYjo7R7IvRRR4DEnKF2ewYjKXT6LZlwKusKF5cH408QrGG68kGbCUGa9GtC8/ocCG5lg9/ieivfEGoSQDljLk9Yj2pQnX2NAc+wU7ejZIUia4Bisubfg0op4WsTdTbWrO7Mh0GkSzN5so8CENkvLHGay4LOCDiPamJjfZ0hy6PqJ4BSONV5IMWMqcl6Lam8MZZEtz5CC+E9X+PGdLJRmwlDnPRrY/N0fzVrxkq8k/I1sw8KxNlWTAUua8xoqo9mcnl7rnxM/YJ6r9+ZCPbKokA5YyZxMvRrZHV3KQbc2yLvw2sj1y/kqSAUsZ9kx0x+i/qGVbs6gat1Ivsn1yBZYkKcMKKKI0su23tjWLLo7ueFlBbdsqScq0kdFdMDdxoG3Nkt1ZE93xMsy2Sso3bxHG6Jno9qgmD9LYxmZBLe6jfnR7ZcCSZMBSFjwd4T7t7ENHs+Ja9otun9a6AkuSlB0To7vpU0ppZA/CTIIjKY7wOHnExkrKP2ew4vRQlHt1Fz1tbQZ14MEoPwEMWJISwJc9x3rpnBnlpfNj9mO57c2IurzJvhHu1ypas872Sso3Z7DiNIfRUe5XZ+73mM2Qf0YZr+Bp45WkJKhpCSL1Hw6Ocr+O47e+PCcDfsgPIt2zoTY3J6rRgkbUpBHQkFpf/F+widXAWjYAK1hFIUUWS2k9SRSnAhZE+vzzUs7hARtcJUfzdKRfrlbSig02OMNq0ZFd6EhrWtCKVrSkBS3LPZe8gsUUsoRCCpnNTGYxi5UWVQYshesZjot0zzYykNdtcKXtzcgvZhtidDeXs9omV1F1OtOVXejMLuxCh4zH8UJmMYtPmMIkprHRgsuApZB8h/9Eu2/L6MM0W1wpO/IW7aLew084i7dsdCXUYHd60ZN96JnDCL6J6UxmEpOYwEKbIAOWkq8+82kS7d7N4mDm2eQKa87rdI9+L4v4I9e69qfcWnAIh7Ife+X9qf4fMYZRjGEapbZFUnL9M8rHjX65TaOVLa6gxrwd9THxzW00nWz4duP2iQxhYgIfN1vIM1zFPk4BSEqm7pFfQt+jmU2ugPq8kZp4VUopKzjXpm9VDQ7l77wbwHP8P+PfnEFzWyYpacZEfgl9K+LF2plWmxGpildfvjbHEL55yD6Re1gcWBeLGMNv2Mv2SUqOc6O/gI6lqW0uh3o8n8J4VUopc+hn+4EWfI8nWRt0L6fze7rZSknJuKwWRn8BfZeWNno7GvBySuNVKaWUMIQ6qZ67HMRQNkTTz6lcw+6e1JLybUgKLqDv09ZGl6EZb6U4Xn2+TWCPVPZ+P25mSZQdHcclNPbklpQ/XVNx+fyEzrZ6G9oyMfXxqpRS1vLDVP0mrQ1XMTXynq7mbg7yFJeUL6+n4vK5mN62eiu6M8dw9dX2bEoe7bEfD0R0S3B722Qu86cMkvJhUEo+ZtfzXZu9hf4sN1Ztti1iUNQdr84gXkphX9dzn+uyJOVaNd5PyYdsMb+w3d9wPhuNVFtZ8n4L9aLsdwt+ydwUd7aYx5zHlpTrC216PmT/QwMbDtTmFsNUGT+L6BlZv9vwj8AfwZC5J/ifTHU/ACTlRh0WpOgDdpIL3mkX/SNmq7pt4OfRXIbbMYR19nSz52V915AlKTd+laqP12WRr7PZnkP5zItsObZXaR98r3fkZsPVNpa+n+ybDCVlX3NWp2ydzY3UTWWna3INm7y8lnNbymlBz1zdwnq7WObTz47zw19Stg1J3YfrxBS+VKOTtwYrvP07yMdVNuB3KfvSVNltLIf58S8pmzqm8Bdla/lRqm4SnM0KL6iVekxtWL89q845zLNvFdgepZOXAEnZc3sqP1rfTMnTcdrwmBfSSm9FXEetQDp9gLOUlfpRwxBfrCMpWzqk6NnOm89jXU3NqDtbnUudu8rAraRdEt/pTjxqpyq9fcq5LnuXlB3pfTLSu+wfbVe7M9qLZ0a2lXwvwX2uyc9ZY5equL3NXl4IJGVemxQ/irCEoXSIrqPNGeJvBjO6PUZBIju9F+/YnYxsmxjiw4glZd6QVH+0ruGaiB7eUJMLWewFM+PbZxydsE7X5zqK7EwGt485wouBJOewMrvN5HsRrMiqzulM80KZpa2Yv1EnMb0+mpn2JAsz2rfRxAuCpEz6mx+ufMCZAb9IoxonMtEuZnl7LxFPUWvE3fYii4vej/aCIClzWrLcj1ZKmcIZAc5kVecExtm9lDxF7QA+sg9Znse6KaVvfJCUFb/wg/WLbRZX0TSYvtXhHKbatZxuL9I2b1H68pQ+ViXX2/vs7UVBUqYu1J/4sfrVtozr2CnxPWvDb1lot/KwLcrLi8N3YqS1z9m2jit8PpakzBjsh+oWi5qHc3JCn+Rdg2N4PIWvOUrS9n/Uz2nPz/A2fs63EezghUGZZm5PZ9dH0tcybGEh9/IfJiZoRLtzBt+nva3Ju+mcxfic/E21uYFLLXgezGcwYyyDDFiqqp6MC/h3dNk0k2e4L0cX023biRMZTB/bkRhF/Jk/Upzlv6Ulj9DPYuetx7/messgA5aq6j7OtgjbNJXnGMEoNuX4763BgRzFMexjCxLoDc5hThb//D4Mo41lzvPn4sWsswwyYKkqduSDHK8sCc8qXmEEI5lOadb/ri4czEAG0MyyJ9hyLuHhLP3ZP+RGalvivHuXU5hpGWTAUlVcxXUWoVwKGcNoRvMeqzP8J9ejB73pSx9aW+ZAPMClrMzwn1mXf3GupU2IpQzmVcsgA5Yqrxbj6W4ZKqCUGUxiMpP5gJmVDlv16MSudKc7PehMDcsanFmczagM/nkFPE1vy5ogG7mIf1sGGbBUeb1506XulbaEmcxiLoUsZgmFFLKOUpYD6ymhPtCYGtShBQUU0IIW7EhHOjlXFYFi/pc/ZGiF3i48z66WNHFfpv7INTlYGiADlqJ1GxdaBKkS/stZfFjlP2U/njFyJ9QwzmG9ZZABS5XThGn+bkmqlHX8kiFV+hMGMoxGFjKxxnACSyyDKssbROm2gp9ZBKlS6vEPHqeg0v/+JTxnvEq03oxkR8ugynIGSy8ywCJIlTSf83ipEv/eH/iNxQvATI7wsQ0yYKlyduE9GloGqZJKGcIvK7ha53p+YeEC8Sn9mW4ZVHHeItQn/NwiSFX4mnoF49m7Av/8jcargLTjjQp0V/qKT+ERjGc/ulgGqdJach5FjC3HD/urMYTLLVhQGnAGI5lnIVTR714StGOyL2mRqugFvseCMv+J6tzODyxUgFZxTEYfL6sU8BahAD7lRxZBqqKBTOLEMv77GtxlvApUI55jP8sgA5Yq7j8MtQhSFbXgCe7bxo9GqvEvzrNEwWrMi/S0DCo/bxHqSwVM9qGjUgbM5CzGfOs//Ys/JwneIg5jmmVQ+TiDpS8Vcr7v3pIyoBOv8z9b/IToKuNVBFrxAh0tg8rHXxHqax/RgD6WQcrAJ+sR9ONVVnzx/5/PEO8XRKEJg3iUVRZC2+cpr2+qyetGLClDVvJzbgdOZBg1LUc0ptLnq+gsGbBUTu15twpvV5O0uf/wOA9Sx0JE5QWOo8gyyIClijmGZz0uJKkMd3G+RVDZXIOlLX1EfW8TSlIZ9mGDDx6VAUsV9TqH08EySNI2HcEnTLIM2jZvBWlr2jOOVpZBkrZpPUds5XlnkgFLZerNqy7MlaQyLKQXn1oGbZ0PGtXWjeEiiyBJZWjNMGpbBm2da7C0LRMp4ADLoBxaQCOLoKC0pynDLYMMWKqYF9mPLpZBOTKTfRnLEdS3FArIAczmPcugb3MNlsrSnLfpbBmUAyvpwxSgNXdzjOVQQNbThwmWQVtyDZbKspQTWWkZlHWbOIkpACzkOH7CBkuiYNRlGE0sgwxYqpipnMEmy6Asu5hXv/q/S7mR/b+IW1IIduZWi6AtuQZL2/MxMzjJm8nKov/lb1v8Jwu5h1r09rhTILrzMZMtgwxYqpjJFHG4ZVCWPMoPKf3Wf1rEy4zhCBpbIAXhCB5huWWQAUsV8yat2c8yKAvGcNI2b0LP4D52Y3eLpADUZV/u3cpXBRmwpDINZ0+6WgZl2GQGsqqM/34tDzOTAT7MUQHoQDFvWAZ9yRUOKq96vEhfy6AM+piD+awc/9yuPOAMqgJQxMG8ZRn0OX9FqPJaxwlMtQzKmE8ZUK54BR/Sh2sptmRKuJrc5WyrvuQtQlUkYj3KcbS0EMqAJRzBR+X+p0t4lRfpR3MLp0Rr6W1CfclbhKqYdrzBLpZBVbSSIxhX4X+rMX/lQounRNvIPs71C7xFqIr6lH7MtAyqknWcUIl4BSu5iNNYagGVYLW5y3tDMmCpMubSn3mWQZW2npN5vdL/9jD2YaRFVIIdwCUWQd4iVOV04XXaWgZVwlpO5KUqf25dxl9cTKzEWkU35lqGtHMGS5XxEf1ZZBlUYWs4tsrxCkoZQh8+tJxKqEbcaBFkwFLlTONQv6GpwvFqUBVuDm5uHHtzk8/NVkKdwgCLkHbeIlTl7cRLdLEMKqcVHM3YDP+ZR3EPO1haJdBU9qbIMqSZM1iqvNkcwiTLoHJZzsCMxysYwV48Z3GVQN34gUVIN2ewVDUFDPclJtquhRzDhKx9iv2Y66lrkZUwi9mV5ZbBgCVVViOe4VDLoDJ8wkA+yerfsCcP0sNC59AyZjGL+RRSSCEbWfnVq4yaUIMCCiigBZ3oRJsUX2du4KceKgYsqfLqMYxjLYO2YTzHsjDrf0sdruVKP9Gyah3jmcgkJjGNFRXoTGe6sxfd2Y9WKavYRvaswAuhZMCSvqUmt3KBZdBWvMgprM7R39Wfe30+Wxas4lXeYAwT2FTFP2lXDuJgjqR9amr3H870ADJgSVVzNdd6PGkL9/ODKl+UK6KA2znZsmfMxzzBcEazMcN/7p4cxSD6puBnViX08M2EBiypqk7n3y411jf8havz8KSqH/APGlr8KprNIzyStR8mfK4dp3I6B0Veycc41cPJgCVVVV+epMAyCCjiSv6Zp7+7Mw9wgC2opE08zR28REmO/r49uICzaRFtPUvpxbseVpKqqgsfUeqW+q2Q/nk9DmvyB4rsQ4W3RVxD6zz0qw7n8F60VX3GC4OkTGjBSC9UKd+m0jkBR2IfZtiLCmwfcRH18tqxAbwYaW2dT5WUEbW4yctVirenaZyQI7Ex99mPcm2z+AE1E9GzvrwWYX2f97IgKVPOZq2XrRRuJVybsF+Gnc5S+1LmtoQfUTtRPTuCd6M7L/b0oiApU/b2Bk3qtnWck8AjsX2UcyKZ2TZxWyKXl1fnHD6LqtJ3e0mQlDkF0a6ocNva9gF7J/RIrM5VbLBD39pG0TXBnx9NuIXiaGq93kfgpk8NS6CsWcd/qEtvHwaSCg9xPHMSOrZSRvM8h0b8KICKW8VPuZRFCR7hBp7nVQ6iZRT1rslGXvGwk5RJx7HYuYLIt7VcGMCRWJ9bKbFblFLKq3QI5POjDn+NZB5rqY+/lZRprRnuJS3qW4N7BXMsDmS+6664JrB7F4czN4rKX+7FQFKmVedqNhpFotweCOx7eWueS3W/ZtArwE+Qgii69rHLJSRlwwF8YhyJbFvJDwI8EqtxaWofIvJCsK+yqs7vI7hV2N8LgaRsaMyDhpKIttfpFOyx2DW6Jy2VZ/vfwH/WdBwrA+/Aw14GJGXLGS55j2RZ+xUJe6BoRdXmLxE9BGD720a+H8HnR4/AV2Otj+Q3kZISqRXDDCiBb2+xexTHYiyLp7e/LY/m5lS7wOcef+olQFI2DeJTY0qwMyHXUSuaI7EJD6SgZ4XsH9GnR0NeCbgX013oLim7WvCQYSXAbRw9ojsWzw1+ZU/Z23y6Rdax+kG/I+JgP/4lZduJLDCyBLSt4LJI3/2wM2Oi7do8ukTYsTo8G2xHfCuhpBxowhA2GV2C2J6hfcRHYk2uivJJbYsS/bbBqqgd7OOLl1HHj35JubAXo4wviX845TEpOBL358PI+raMfSLuV33eCLQvg/zYl5Qb1TiPhcaYhG4b+DP1UnIkNuLuqB6lcVDk/WrK1CA784Af+pJypxn/pMg4k7jtefZI2ZF4KoVRdK6YU1PQrZ2CXMe5MjVfWSQlxD68ZqRJ0PYeA1J5HLbj5Qi69/OUdGtfVgfYnZP9uJeUa/1T+QqT5G2fcmGkvxgsj2pczvqg+/dgirp1RoD98ZU5kvKgBt9LzfO1k7mt4rc0SP1xuHeg63s+n3usn6pe3Rhch1anrEOSEqMeV7HMqJOX57TfThsPwC+OwpspCbCHS9k5ZZ2qxcjgunSMJ5ikfCngb6wx8uQ0XN2Vukvz9hwd4CLq01LYp/YsDaxLN3lyScqnVlzPKqOP4SqPfh1YJ/+d0j6dFlifPvLUkpT/maw/stwIlNVwdSedPNC2IaybTzNonNpO/Tuw866LJ5ek/GvKbyN5OlHyHiNquCpL46BeoFNC/xT3qhnzgzr3fuzpJSkpl7qr/HVhRrfF/MkF7dtxYlAdTftrhE8N7CG+kpQYtTiDsUajDGzTuMinSZfDrQH19DOap75fTwb1KiPPQEkJcwAPBXXjJmnbyxxDNQ+jcvkooL5+33bRkXUBdayfDZOUPO24liWGpQq/A+12enjwlFvbgHo7juo2DPhTQD37te2SlEx1+Q4vUWxwKtc2hh/Q0IOmQk4PaHl7X9sFQAPmBdO14bZLUrLnsq7iEwNUGdsybmMvD5RKuCWYHj9ps75yYTBdW5Hi931KCkR1juThwF/Pm42tiJc4gzoeIJU0MZj5KwP012rxcTBnqH2TFITmnM+LbDJYUUoxI7mUHTwoqqBZMLefh9qszZwTzHn6Q5slKRwtuICXKEpttCphDFfQzgOhygYE0/HuNmszNYKZw3rQZkkKTUsu4uWUxaxi3uJn7GTzM+SXLpUO1qWB9G6mrYqZT8NRzJpzBP05Nvr5nKW8wss8y3xbnkGPc1IQ4+zPKzZrC/WZTYtAPqOW2S5JoarOvvyGsVHOZ73LtfT1t0hZMTuII2CijdqqUJ6HdbCtkhS+Ar7DHUyLIlh9yN2c50qrLGrlMumg7RTITxQutVXx8hah0njp7MMh9GVvagY28hKmMJI3eZMFtjHLjuSFAEa5lrassFlbNZyjAhjlbVxsq2JV0xIodRbxBE8ADelNH3rRk7YJH/FC3mUCYxnteo2c6RrEKIcar7bpziAClq+uipgzWBI0oxu96EUvdk/QG90WMJ7xjGcqM2xRzt3B+QGMsh+v26ptqMVnNE/8KFfTmFKbJSl+jbkrESsznqeZzcir0QGs31ngzxvKdHcQq7B2tlGx8v3r0jetZGEixlHozcA8C+EW4aMU26gyPOKRJgOWJCVJG5oGMMphNqpMr1AYwCidwTJgSVJqdA5gjMsYY6PKVMRLAYzSdy8YsCQpNToFMMaXKLJR2zHcY00GLEnyohdbeMh/jUo81mTAkiQveuXnGwi3bzGTPdZkwJKkpEj+wuM5zLVN5TA68SNs4iNZDFiSlBbtEz9CF7jHErCcwzJgSVJq7GBwMGDljC9tN2BJUio0pW7ixzjBNpXLbJYkfowtbJMBS5LSIPnzV6VMsU3llPxl7gYsA5YkGbASYSYrbVM0AavAJhmwJCkNWiV+hFNtUrklf67PgGXAkqRUSP7P5j+xSeU2I/Ej9BahAUuSUqFJ4kc4yyaV28zEj9AZLAOWJKVCI0NDROZSnPAROoNlwJKkVGgcQGhQeW1igYFeBixJyr/k3yJcbJMqIOlPwqptiwxYkpQGDRM/wqU2KaKAVccWGbAkKQ2SPqOwlrU2qQIKDVgyYElS/tVM+PhW2KIKWW6glwFLkvKvVsLHt8EWVcjGxF+Ha9okA5YkGbAMDGFJfiD1JqEBS5JSIOnzCc5gxVYvbxIasCRJCkyJV2LZVknKv6TfgnO+o2LqJn6EzkkasCQpBZJ+uTNgVUwdjzgZsCQp/5I+g+WS6LjqVcomm2TAkiQDVr41tkVR1ctfhRqwJCkVkn7DpmEAq4qSpMDjTQYsScq/5M8oNLdJFdDCgCUDliR5wQs/MhhH4wr0MmBJUgasSfwId7RJFbjKtfV4kwFLkvKvMPEj7GiTyq1d4h9rsdgmGbAkKQ2WGLAi0slALwOWJHnBK4+dbZIBSwYsSQpL8mewutmkctvT400GLElKguTPKHShvm0qp+4ebzJgSVISJH9GoQZ72KZy6uHxJgOWJCXBUkoTP8aetqlcWtEm8WN0BsuAJUmpsCmAH873tk3l0ieAMS6wTQYsSUqH2QaHSPQNYIwzbZMBS5LSIfmXvC60sk1RBNE1PmjUgCVJaTEr8SOsxqG2absas08Ax1qpjTJgSZIBKymOtk3bNYBaiR+jNwgNWJKUGiFc9I6mmo2KIIQasAxYkmTASpAdfFTDdlTjqABGOctGGbAkKS1mUxLAKE+1UWU6iHaGeRmwJCk51gcxr3C6NwnLdEYQo5xmowxYkpQekwIY4870slFlXN1OCWCU6/jIVhmwJMmAlSxn2ahtOpy2AYxyGsW2yoAlSekxOZCAVddWbcMFQYxyoo0yYElSmoQxg1XAybZqG5U5wSAvA5YkJc3HrA1inBfaqq06jzoGLBmwJClpSpgSxDgPZX+b9S01+XEgI51kswxYkpQuoayOudxWfctgdgpinJ+xyGYZsCQpXcYGMs7T6GCztvAzjzEZsCQpmUYHMs6aXGWzNnMs+wQy0lE2y4AlSWnzUTC3by6gk+36SjV+F8xYDVgGLElKndJgbuDU4le26ysnsV8gI13He7bLgCVJ6TM6mJGeS1fbBUBN/hjMWN9how0zYEmSASvJseIm2wXApQFFTW8QGrAkKZXGsz6YsR7BcTaM5vzGAC8DliQl24agfkZ/g+8l5FoKghnrJgOWAUuS0mpEQGPtEtTsTTYcFMgLnj83hpWeYAYsSUqn4UGN9hf0THGv6nBnUFe04Z5eBixJSqvJzAtotDW5g1qp7dVvA/sl5QhPLwOWJKVXWJfBXgE9ZDOz+gb2PPsFvubZgCVJBqxw/JJ+KexSE+6nRlAjHk6pJ5cBS5LS62U2BfaZ/u+AfkmXKbfT0eAuA5YkhWNFcD+m78B/ApvNqaorOS2wEW/iJU8tA5YkpdujwY34SP6Qov705vrgxvwiyz2xDFiSlPaAVRzcmH/J4JR0pyOPB/jLyWGeVgYsSUq7hbwR3JircR+9U9CbxjxN6+BGvYEnPa0MWJKkoQGOuS5P0yXyvtTiMboHOO4RrPCkMmBJkh6jKMBRFzCcthF3pQb309/ALgOWJIVqCa8GOe5deC3AG2jlU41bOT3Ika/nWU8pA5YkCeCRQMe9K8NpFmW8+gcXBjr253zJswFLkvS5oawKdOQ9GUWbCOPVZcGO/h5PJwOWJOlzqwNeN9OV19gxol7U4O6A49U8n+FuwJIkfe2OgMe+G2+yRyR9aMATnBfw+O8J8KlqMmBJUta8zXsBj74jo6N4CfQOvM6ggMdfwl2eSgYsSdI3hX1pbMYIzg28Az14i32D3oOXmO2JZMCSJH3T/awNevy1+Te3UTvY8X+HMewU+DF0h6eRAUuStLkVAb72eUsX8mqQDx+txT/4Dw0Cr/5CnvY0MmBJkrZ0UwT70IeJnBDYmDvxOpdHUPt/scmTyIAlSdrS+ABf+/xtLXiSf1E/mPF+n0lRvLh6Hbd6ChmwJElb8/dI9uMipjAggHG25XHuomEUNb+XRZ5ABixJ0tY8y/RI9qQTL3APzRM8whpcxgecFEm9S7jR08eAJUnaulJuiGZfqnEeH3E5NRM5ugMYzZBI5q4AnuJDTx8DliRpW+6P6kZPc/7BBPonbFSdGMpbHBDVcXODp44BS5K0bev5Z2R71J2XeJU+CRnNjvwf0xkcWY3fYpSnjgFLklSWm1ke3T71YxTDOTTPo+jITXzExQE/DHVb/uBpY8CSlIyHGdajmq1IqOXR/JZwc0fxOu9wep7WZO3Lw3zEj6kbYWXHMNzTJo38EJc+tzP96cuhdEjIeFbxNi8zmnfYaHMSpiGf0CravVvAfdzOjBx+mTiOCxO3DiyTjuBVTxpJ6bMrV/AMSylN6LaKF7iKHjYqUX6e2OMlM1sxL/I9mmW5ijU5intYFXktX/N0SStnsJRW9TiUYziGXQIZ7zyG8zwvs9rWJUB9PmGH6PdyIy/yBCOYn/E/uQH9GMQpFKTgWDnYBe4GLCktmnI8gzk8oJeFfPOSN5JHeZzFtjHPLmNISva0lIm8wEjGZGBxfy160ZcjOYQ6KaneCxzlyWLAkuLXhOM5jQHBf7gX8xpDeYIltjRv6vJBYtbr5UYJUxnLRKYwqYJRqzZd6U539md/6qWqZqUcwH89WQxYUsxqcxznMjCq781FvMr9PMY625sX3+E/qd33z5jJTGaxgEIKKWQFJaxnHTVpBDSiKQW0oDU70ZFOdEjo0+Kz737O8UQxYEnx2p3z+F60v/paycPc7yqPvHx6vsHBlkHbtJbdmWsZDFhSjBryHb7PgSnY08ncxf0steU5tS9v+yxBbdNv+JNFMGBJ8enERVxA8xTt8QaG8lcm2/ocuofzLIK2ai67s9YyGLCkuPTlMk5K6bqP0QzhcYo9CHKiNR/S2DJoKwbzqEVItxqWQFGpyZk8wNV0S+2tmw4M5rsUMdmQlQNrIOpnkKuyRvILi5B2zmApHrU5l6vZ2UIAMJ+/cZu3KLKuDu+xu2XQZjbRy5v1coGmYglXF/IxtxuvvtKWG5jNNTS1FFm1ge9RYhm0meuNV/IWoeIIV5fwON+hiaXYQn0O4yKqM4FNFiNr5rED+1kGfeUDzqTIMshbhAr9CD6Va+lsIcq0mD9zix/5WdOYKbS3DAKglP68ahnkLUKFrT/jGGq82q6W/IMpDPYLVZas5GKLoC/cZrzSl9//pTB14x/+fquC3uZy3rYMWfEwp1sEMZ+urLAMAmewFKYm3Mh7xqsKO4Ax3BXtS4Py63IWWwRxifFKBiyFqhrnMJ0rUvv62Kqe8d/nA66itqXIsIWcS6llSLnbedoi6Ev+ilBh2ZvHuIyGFqIK6tKfE5nCHEuRUR/Thn0tQ4p9wCn+XlffnA2QQlGLn/AH514ypJQ7+DkrLUQG1We8Dx1NrU305R3LoK95i1Ch6M1ErjNeZfDL1YVM50QLkUFrOZONliGlfmW80ua8RagwZgb+yB0uzs64RpxBN17zhToZs4CNDLAMKTSSi12Dpy2/xUpJdwj30tEyZM0izucZy5Ah1XmRIyxDyixhbz61DNryw0BKsppcw6vGq6xqxdPcRwMLkRElnM4sy5Cynp9lvNK3OYOlJOvIA/SxDDkxnTOZYBkyoiejqWcZUuNqrrcI+jbXYCm5zuFZX4OTMy34PjUY6TqSDPiMxQyyDCnxFJdZBG2NM1hKpgbcznctQ86N4CwKLUMG3MkPLEIKfMD+PuxEBiyFowuP0d0y5MVcBvu+wgyow5vsZxkit5oDmWoZtHUuclfynMI441XetOcNLrQMVbaBU1loGaJWyveMVzJgKRQ1uY5hNLYQeVSH27if+haiiuZwHGssQ8R+yaMWQdvmLUIlSTOG+QyhhBjP8cy3DFV0Eo/6NTZSt3ORRVBZ/BWhkmNnXmF/y5AQbfkOI41YVTSd1Qy0DBEawVmUWAYZsBSC3rzkA0UTpRFn8j7TLUSVjKWAAyxDZKZwDOssgwxYCsEZPE4Ty5AwtTmdarxuIarkBfZmd8sQkfn0Y5FlkAFLIfgDN1HTMiRQNQ6jLcN9/GgVlPIMh9HeQkRiKf35yDKoPB+fUr5D/j+52DIk2lOcwXrLUAVNeJl9LUMEVtKf/1oGGbCUfLW5n9MsQ+K9zgk+r7pKWvA63SxD4NZxjLfMZcBSCBrwmL+xCsR4jnHdSZW04g3XYgVtIyfxvGWQAUvJV8AIb5sE5EMGMMcyVMFOjKSDZQhUEafxhGVQ+fkIPOVLC14xXgVlV14zHlTJbPr7ZLFAFXOu8UoGLIWgGSPYyzIEZmfepJNlqIKP6MMnliE4G/kO/7EMqhhvESofWvIyPSxDkObQjxmWoQra8JLL3YOygTN40jLIgCXjlYxYydaaFz0DgrGGk3jJMsiApeRryuveHAzcTA7mU8tQBf7AIxTLOYaxlkGV4Ros5VZ9njVeBa8TL9DcMlRBIUfwpmVIvMUcbrySAUshqMUw+liGCHRjOA0tQxWsZAAPWYZE+4S+vGsZVFm+i1C5U427GGwZItGOA3mEYgtRacU8DhxmIRJqLP2ZaxlkwFIIbvSdg1HpxJ486mugq+R15nG0n8MJ9CgnscIyyIClEFzNry1CZHanMS9Yhip5l7c4gToWIlFu4nw2WQYZsBSCU/iXv1mN0IEs5r+WoUpmMILjaGwhEmITF3OtM7OqOi95yoV9GEkDyxClYk7kWctQRS14mCMsQwIs4gxeswzKBGewlH1teYUWliFS1RnEcyy0EFWylv9Qhz5+5c2zURzBZMugzPB0VrY1ZJRPvorcbA4wYmXACdznrcI8up0fufJKmfz2KWU3wt9tvIreTjxBbctQZU+xP+9bhrxYz/e4yHilTPIWobLr51xhEVKgPY0ZYRmqrJAH6UxXC5Fj7zOQFy2DDFgKRz/+7SxpShzITCZahirbwDBm0t8HN+TQ/ZzIPMugTHMNlrKnPeNpaRlSYw0HMsUyZERHHvClUjmxmPN52jIoG5xdULbU4iHjVao04HGaWIaMmMVh/N4XEWXdy+xtvJIBS6H5q9/AU6cLt1uEDCniGg5jpoXImnVcwZHMtxDKFtdgKTsGcrM3oFOoG3N4zzJkyBzuoCYH+UU4C97kOJ6zDMomL4HKhpZMYgfLkEpr6MUHliGD9uZOelmGDFrONdxMiYVQdvnNSNmI7Xcbr1KrAQ/6TKyMeo8DuZr1FiJDnqU7Q4xXyj5vESrzLuNyi5BibanFK5Yhg0oYzaP0YCdLUUXzOIffsdJCKBe8RahM68Y46lqGlAeCfoy0DBn/tD6dv9DeQlTSOv7OdayxEDJgKUzVeZPeliH1ZtLdS1kW1OMyfkUjC1Fhz3KZv8lUbnmLUJn1c75vEUQz6vjqkSwoYjT30ZIefjmugHc5g+tYbiGUW56kyqRdeY96lkFAMX15yzJkSR/+ykGWoRw+5Rrudkm7DFgKW3Ve52DLoC9Mp6e/fcui/vwv+1qGMizhb9zEOguh/PAWoTLnUi62CPpKC6rxqmXImhncySS60cpSbEUhf+S7vEaRpVC+OIOlTGnNB76JTpvZyN5MswxZ/gw/lT+ym4X4htXc4por5Z8PGlWm/M14pS3U5iaLkGWlDKMbp/OOpQBgPlfTnquNV0rCtx8pE/rwpkeTtuI0hlmEnOjLZZyc6mUfH3ELt7nuTwYsxaQG49nLMmgr5rEHqy1DjuzCZZxP/RTu+Wiu51lKPQSUpAujVHU/5jyLoK1qTHVfnJMzyxjBnRTSkeap2ecV3M0F/C8f2n4lizNYqrqWfEhTy6Bt2MiefGQZcvzJfhgXcDJ1It/P0dzBMNbacBmwFKchXGYRWEUhhcBqNgE1aAw0oaVL/4FhnGYR8qCAs7mArlHuWyH3cSfv22QZsBSvnZlG7VQGqilMZiYzmcUcCtm4jX+uJgW0pyMd2Zlu9EjlXF8pB/ort7zZh9M5jY7R7M9KnmIoL27zjJMMWIrEQ5yRor3dxLuMYQwTmFHJBbU7sTe96cO+0d+++abX6eepktdP+v05jcG0D3ov1vAMjzDC3wnKgKU02Jd3UnIUfcRwhjMyY+s96tCbozmK7ik5Uo7leU+XPKvOQZzM0ewR3MgX8wJP85yrrWTAUnq8wuHR7+NEhjIsa8u0O3AKp7N/9OfiZHpS7AmTCB05iqM5nIaJH2kx7zCcEYz3dc2S0qU/pVFv8/kzu+fokvdrZkZezbM8YRKlNkfwF8ayMZFHywfczRkU2CaFyxksVcUbHBLpnpXyIrfxTE5fFVud/lzIidE+nW4aezoPkUD12I+D6U3vBPwAYyPjGcMoxrDIxsiApfQ6lNej3K8NPMgNTM3T374zV/C9AG7eVMbpDPW0SazqdOUAetCdHjmeOVrH+0xiMuP5L+tshAxY0kv0j26f1vMv/sKCPI+iOVdwBY2iq+5k9vJlJkFoS3f2ojtd6ESrrPwNq5nJJ0xhEpP5yNV5MmBJXzuIMZHt0Sbu5M98mpDRtOAXXBrdW+VO5glPncDUpxOd6ERHOtGSAlpQQPUK/hkrWcwSCpnzxZPjZrLEwsqAJW3dcxwT2f78lA8SNqb2XM8ZUZ2lE9jXOawIFFBAAS2oS3WaAPWoCzRlNUUUsxJYywaKWUIhhRSyyZJJUvn0iOr3bdMZmNhK92Z8VLUe6MkjSdK23B3NBX8T11E30bWuzoWsiqbePm5UkqRtaMW6SC73/6VHEBXfmVciqXhJjp4sJkl5/m4sVdwlCZ/zKZ9SbqIPk4IY6wz6cwUbIqh6NS7zBJIk6dvqsCCCmZTZAT4ktSfTIqj8app7EkmKnTNYqrgz2CH4fXiD/RkZ3KjfZb8IHtXZgAs8iSRJ2tLbwa8Cui7g19FU4+cUBd6BWX61kyRpc90Dv7iv5zvB9+AoVgbehSM9kSTFze+RqqgfBD36pQzkoeB7MILezAl6D77viSRJ0tfqsDjoW1O7RtOJdkwOeh6xwJNJUsycwVLFnECLYMc+k358GE0nPuUQ3g44qJ/lySRJ0pdGBDtnMoU20XWjCaOC7cckTyZJkj7XjuJAL+fTaBVlRxoyNtiIta8nlKR4eYtQFXFaoEfMHI5iUZQdWc1RjA907Kd7QkmSBAQ6WzKPjlF3pSXTA/3JQTVPKUmSOlAS4GV8FT2j70wnPgsyYh3oSSUpVt4iVPl9J8AZh2LO5N3oOzOT41gT4Li9SShJEuMDnCP5cWq6MzjA+cW5fsWTJKVd5wDj1X2p6tBfAuxQX08sSXHy+6PKa1BwI57Ixanq0C95IbgxH+eJJcmApXQ7JrDxruRk1qaqQ8Wcw2eBjflYTyxJUpo1ZH1gN5/OSWWfjgxuJdZOnlySYuQMlspnAHWCGu9jKVt/9aUXuTmwER/tySXJgKX0Cusy+BkXprZTV/FBUOP1JqEkKbWqMS+o206nprpbhwR1m3At9T3BJMXHGSyVR1faBTTaJ3k01d0aye0BjbYevT3BJBmwlE6HBjTWNfwo9f26KqhXWx/iCSbJgCUDVtL9L5+mvl8r+LVHlyTlk2+zV3l8SttARjqX3VP29KttfXV6m30DGesGmrHOlkmK7WNY2p7dgolX8AvjFQAl/DyYsdZhfxsmyYCl9AnnFs4UhtquL7zOyx5hkmTAUnIdHMxIf0OJ7fpGNULhMndJUgpNC+SJSuNcU7iF5wLp3DI7Jyk2zmBpexqxayAjvZ5S27WZ6wIZZ1M62yxJBiylyz6BHCWzeMJmbeFN3gpkpL1sliQDltIllEvfjRTZrK1UxaNMkgxYSqB9ghjlav5tq7bi8UAeu2rAkmTAUsqE8bjKh1lpq7aiiHsCCVh+FkmKir/dUdnqsTqIS98BvGOztqojnwTRwV2YYbMkxcNvjSpblyCOkcnGq22axStBjHM3WyXJgKX02COIUT5ko8rwsAFLkgxYSpbdgxjlMBtVhsfZaMCSJAOWvOxVzDg+tlFlWM5LRnlJMmDJgFUxT9mm7XjSgCVJueWvCFX28bGShokf5b6Mt1Vl2pE5AZzrzVhuqyTFwhkslaVVAPFqMe/aqO2Yx5QARtnRRkkyYCkd2gUwxhGU2KhyVCn5drRNkgxYSof2AYzxDdtUDiM92iTJgCUveeU3xjaVw+gA5vna2SZJBiylQ/Ivecv4wDaVq07TjfOSZMBSMiR/VczbrsAqp7c82iTJgKVkSP4M1kSbVE6TDFiSZMBSMrQ0NhiwcqaFTZJkwFI6NDM2GLBypomfR5IMWDJgJUGpbyEst0IKEz7CGjSyTZIMWIpfbeonfITzWW+bym2WgV6SDFjychdDZEiSmR5xkmTAUv41NWAZsAxYkmTAUtoC1mc2KapqNbVJkgxYil/dxI9wiU2qgEKPOEkyYCn/ahuwopL8atWySZIMWIpf8i93y2xSBSw10kuSAUte7rZvrU2KqloGLEkGLKVA8mewNtqkCthgwJIkA5YMWDFEBqsV1xEnSQYsVVnNxI9wk02KqloGLEkGLKVAkREwKsmPLwZmSQYspUDyVzjVsUkVkPwVTt7ylWTAkgHLyBCYOh5xkmTAUv4lfz6hnk2KqloGLEkGLKVA8i93zW1SBRQY6SXJgCUD1va1sElRVcuAJcmApRRI/uWuwCZFVS0DliQDllJgfeJH2MomVUBLA5YkGbCUf8l/lXJHm1QBnRI/wqU2SZIBS/ErNGAZsDziJMmApcxaz5qEj3BHX64SVRxdYpMkGbCUBkm/4NVgF5tUTk0Sv2JtE6tskyQDlgxYSdDdJpVTD6ol/mgrtU2SDFhKg+SviTFgxVMpV2BJMmApJZI/g7WXTTJgSZIBSwaszNrfJkVTKZe4SzJgKSXmJH6EO7CzbSqHRgHM9c2yTZIMWEqHmQGMsY9tKoeDqGHAkiQDlgxY5XWwbSqHvgGM0YAlyYCllAjhkneUbYqkSjNsk6R4VLMEKtNymiR+jN1430aVqQULA/gy1TDxbw6QpHJzBktlmxXAGJ3D2p6BAZzpC41XkgxYSo8QVmGdYJu243ijvCQZsJQknwQwxr60s1FlaMBxHmmSZMBSkkwO4ig+1UaVYRD1AxjlJBslyYCl9AjjsneGjSrD6UZ5Sco1f0WostVhFbUCGOeeTLVZW9WauUF0sD3zbJakeDiDpbJt4MMgxnm+rdqG84KIV0uNV5IMWEqXMG4Snk1dW7UV1fh+EOP0BqEkA5ZSJoxLX4HrsLbqSHb1KJMkA5aSJ5Rfd/3UFYVb8TOPMkkyYCmJxgUyzj0ZaLO2sBf9AxnpeJslyYCldFnIx4GM9Oc2awu/CGScq5hosyQZsJQ2owMZ5+H0s1nf0DWYdWlvUWy7JBmwZMBKqj/arG/4fTDn92ibJcmApfQZE8xI+3CU7frC3pxihJekfPF3VyrPUbKE5oGM9X32osiWAS8yIJCRFtGcVTZMUlycwdL2lTI2mLF25SIbBpwaTLyCicYrSQYspdOogMb6+2Bm27KnLn8JaLTeIJRkwFJKvRjQWAu4PvX9+g2dAhrtC55gkuLjGiyV7zj5lDbBjLaUI3k5xd3qzvggXvD8ufUUsNZTTFJsnMFS+SJLSHNY1fg/6qW2VzW4M6B4BSONV5IMWEqvEUGNtnOKbxNezf5BjXe4J5ckKb2aUURpQFsJx6WyT73YEFSfStnNk0uSlGajA7twf0ar1PWoIR8F1qUZnliS4uQtQpXXiMDG25qHqZmyHt1F58BG7A1CSVLKdQ9sbqSU0pStxPppgB0a4IklSUq794O7fJcwODXdOYxNwfVncermGCWlhrcIVX5DgxtxNe7lwFT0ZheGBhhWHvW9kZIk7R7gLahSFge3LqniCvgwyN7086SSJAkmBXkZf5+CqLtSnzFB9mUBNTylJMXKW4SqiKFBjnoPXqZZtD2pzaMcFOTIH6XYU0qSJNglyJmSUkoZQ8MoO1KDocH2pK8nlCRJn3sn2Mv5qxFGrNoMC7Yfs5w/lxQzP+JUMXcGO/J+vBbZWqw6PMKpwY7+bko8nSRJ+lwjVgU7Z1LKhIhen9OY1wLuRBHtPZkkxcwZLFXMKh4OePQ9eYs9ouhDW17nsIDHP4K5nkySJH1t/4DnTUopZWnQweRz3ZkTeBdO8ESSJGlz7wV+cd/AJUHX/7Sgb9OWUsp8X5EjKXbeIlTF3Rn4+GtzK/dTP8ix1+Q6Hg7+95D3+IocSZK21DT4GZTPF7zvFlzl2/NGBJUvopMnkSRJ3/aPCC7zpazlcqoFVPWTKYyi7kM9gSRJ2ppObIriUl/Kk7QJouLNuCeSipdygCeQJElb90g0l/vlXJ74tYiDmBtNvd/w5JEkaVv2j+aCX0opr9M9sZXehaejqrUPaJAkqQxvRHXZL+a+BD7lvQHXsC6qOn/gL5clSSrL8VFd+D9/BOnVNEhMfWtzKfOjq/GFnjiSJJWlOlOju/yXspArqJf32tbifGZFWN35CaitJEkJNzjCCFBKKYu4Lo+/LWzI5cyOtLI/8qSRJGl7qvFupEGglDX8H3vnvKK78TeWR1vT2dTxpJEkafuOjzYMfL79lwtpmpNKNuBs3qAk6mpe4AkjKU1zEFJVvBX9YyM38BLDeJKVWfrz6zKAwZwU/PsFt2cWu7HRE0aSAUsqj4GMSMV+FvE2z/AyEyjN2J/ZiQH0ZyCNU1HBc7nP00WSAUsqrzfpm6K9nc9oRjOGiZWejalJV/rQh77slKK6fUA3ij1ZJBmwpPLqzagUHkdFfMBkJjOTmczis+380y3oREd2phvd6UrtFB4lJ/OEp4okA5ZUEf/hOymvwAYKv9hKWMd6oDYNgIIvtrQ//elVjvA0kWTAkipmR6Yn6AnoSppi9mGSZZCULjUsgapsJbU4zDJoG/7FPRZBUto4g6VMqMe0VC3ZVvktY1eWWAZJaeOb7ZUJ6/ilRdBW/d54JSmNnMFSpo6kkal6XIPKZxp7sckySEofZ7CUGaWcz3rLoM2UcKHxSlI6uchdmVJITZe6azP/x78sgqR08hahMqc2E+hmGfSFBXRluWWQlE7eIlTmbOQHvg5FX/mh8UpSenmLUJn0KQUcYBkEDOOPFkFSenmLUJnVkCk+EUsso+t239AoSRHzFqEyazXneJtQ/Mh4JSndvEWoTJtNA/pYhlS7nz9YBEnp5i1CZV4tRrG/ZUitmezNSssgKd28RajM28SZrLYMKVXEmcYrSfIWobJhKcs4zjKk0u950CJIkrcIlS1PcoJFSJ3RHOqPHCTJgKXsKWAcHS1DqiyhF3MsgyS5BkvZU8iJrLUMKVLCWcYrSTJgKdsmcpFFSJH/4QWLIEmfc5G7smkSrdnPMqTCU1xmESTpS67BUnbV4lX6Wobofcj+rLAMkmTAUq7swATaWIaoreZAploGSfqaa7CUbZ9xgovdo1bMWcYrSTJgKdf+y7mUWIZoXclTFkGSNucid+XC+6xngGWI0g380SJIkgFL+TGalr4AOkLP8gNKLYMkbclF7spdmH+c4y1DVMZxGGssgyQZsJRPjXiDnpYhGp/Qm0WWQZK2xkXuyp1VDOR9yxCJTxlgvJIkA5aSYDFHMsMyRNLJmZZBkgxYSoZP6cdsyxC4FRzlXKQkGbCUJHMYwALLELA1HMcEyyBJBiwly0cMpNAyBGodxzHKMkiSAUvJM5kjWWIZArSG43ndMkjS9viYBuXL7rxMO8sQlBUcy2jLIEkGLCVZJ15mZ8sQjGUczduWQZIMWEq6DrxMF8sQhIUMYLJlkKTycQ2W8mkOBzPJMgTSKeOVJBmwFIiFHM5Yy5BwU+nLR5ZBkgxYCkch/XjIMiTYK/RlrmWQpIqoYQmUd8U8DhxmIRLp35zBWssgSQYsheh15nG0x2PClPIHfkKxhZCkivJXhEqOATxKY8uQGBs5n/stgyQZsBS6vXjcJ2MlxGecxpuWQZIqx0XuSpKJ9ORJy5AA4zjAeCVJleeaFyXLBoayjsOdW82r2zmVpZZBkqS4HMNSSt3ysq3j+x6AklRVzhMomTrzON0tQ87N4BTeswySVFXeIlQyLeUeatHbrwA5NYzjmWUZJEmK2wDme9MuR9sKzvaAkyQpHVrytOEnB9tb7OLBJklSmpzDaiNQFrdNXEctDzNJktKmK2MMQlnaJnOAB5gkSelUjQtZaRzK8LaR66jjwSVJUpq15XFDUQa30XT1oJIkSTCYhUajjPxm8HJflCVJkr5UwG0UGZGqsJXwEO08kCRJ0ub2YIRBqZLbeA72AJIkSVs3iE+MSxXcFnO5b2+QJEllqc3lrDA2lfsXg0No7EEjSZK2bwduYr3xabuPEr2bjh4skiSp/HZkiCFrm1sxQ9nVg0SSJFVcB25jk3HqW78XfIa9PTgkSVLl7cZ9bDRWfTVz9Rg9PSgkSVLV7cA1LE19uFrPfezuwSBJkjKnEZczO7XhahHX0caDQJIkZV4tzuSd1IWrqVxEPZsvSZKyqSvXsSQV0WodQ+lPNVsuSZJyoS6DeYmSqOetrqK5jZYkSbm2B3+JcF3WAm6ml82VJEn51I1rmBFFtCrkPgZR05ZKkqQkqM4h/JMFAUeruzjSaCVJyeaiWKVVN46jP4dSK5gRv88zvMxINto8STJgSUnWnCPoz7G0S/AYV/M6z/A882yXJBmwpHBUpyt96UMfOiVoVJ8yijGMYiLFtkiSDFhSuNrShz70pjt18zSCjUxjDKMZzSzbIUkGLCkmNdiJbvSiK93YnepZ//uW8T7jGc9UprLe8kuSAUuKXWP2oBOd6ERHOtGB2hn4M4uYy0xmMZNZzGA6Sy2zJBmwpPSqTjva0YICCiigBS1oQQPqUB9oTA1q0ghYw0ZKWQ6sZx1rKaSQJSxhCYUUMp95FFlKSYrX/wNUZeX/NIxILAAAACV0RVh0ZGF0ZTpjcmVhdGUAMjAyNC0wNy0yMlQwMjoyMDozMSswMDowMFlXy8AAAAAldEVYdGRhdGU6bW9kaWZ5ADIwMjQtMDctMjJUMDI6MjA6MzErMDA6MDAoCnN8AAAAAElFTkSuQmCC;imageBackground=none;imageBorder=none;shadow=0;" vertex="1" parent="1">
          <mxGeometry x="125" y="285" width="20" height="20" as="geometry" />
        </mxCell>
        <mxCell id="3y3GQ4eEcmSv0iMo7wFA-1" value="ACTC603" style="ellipse;whiteSpace=wrap;html=1;aspect=fixed;fontSize=8;fillColor=#f5f5f5;gradientColor=#b3b3b3;strokeColor=#666666;fontStyle=1" vertex="1" parent="1">
          <mxGeometry x="630" y="85" width="50" height="50" as="geometry" />
        </mxCell>
      </root>
    </mxGraphModel>
  </diagram>
  <diagram name="Portabilidade Retida Automaticamente" id="GXsnh7c_qJ2FTQuJOBPE">
    <mxGraphModel dx="1185" dy="426" grid="1" gridSize="10" guides="1" tooltips="1" connect="1" arrows="1" fold="1" page="1" pageScale="1" pageWidth="850" pageHeight="1100" math="0" shadow="0">
      <root>
        <mxCell id="m2FTEEQ7p--lfM0Sk6VC-0" />
        <mxCell id="m2FTEEQ7p--lfM0Sk6VC-1" parent="m2FTEEQ7p--lfM0Sk6VC-0" />
        <mxCell id="m2FTEEQ7p--lfM0Sk6VC-2" style="edgeStyle=orthogonalEdgeStyle;rounded=0;orthogonalLoop=1;jettySize=auto;html=1;entryX=0;entryY=0.5;entryDx=0;entryDy=0;dashed=1;" edge="1" parent="m2FTEEQ7p--lfM0Sk6VC-1" source="m2FTEEQ7p--lfM0Sk6VC-4" target="m2FTEEQ7p--lfM0Sk6VC-5">
          <mxGeometry relative="1" as="geometry" />
        </mxCell>
        <mxCell id="m2FTEEQ7p--lfM0Sk6VC-3" style="edgeStyle=orthogonalEdgeStyle;rounded=0;orthogonalLoop=1;jettySize=auto;html=1;entryX=0;entryY=0.5;entryDx=0;entryDy=0;" edge="1" parent="m2FTEEQ7p--lfM0Sk6VC-1" source="m2FTEEQ7p--lfM0Sk6VC-4" target="m2FTEEQ7p--lfM0Sk6VC-8">
          <mxGeometry relative="1" as="geometry" />
        </mxCell>
        <mxCell id="m2FTEEQ7p--lfM0Sk6VC-4" value="lbd-distribuir" style="rounded=0;whiteSpace=wrap;html=1;fillColor=#f5f5f5;gradientColor=#b3b3b3;strokeColor=#666666;" vertex="1" parent="m2FTEEQ7p--lfM0Sk6VC-1">
          <mxGeometry x="210" y="90" width="80" height="40" as="geometry" />
        </mxCell>
        <mxCell id="m2FTEEQ7p--lfM0Sk6VC-5" value="&lt;span style=&quot;color: rgb(0, 0, 0); font-family: Helvetica; font-size: 7px; font-style: normal; font-variant-ligatures: normal; font-variant-caps: normal; font-weight: 400; letter-spacing: normal; orphans: 2; text-align: center; text-indent: 0px; text-transform: none; widows: 2; word-spacing: 0px; -webkit-text-stroke-width: 0px; white-space: normal; background-color: rgb(251, 251, 251); text-decoration-thickness: initial; text-decoration-style: initial; text-decoration-color: initial; float: none; display: inline !important;&quot;&gt;Posição:&lt;/span&gt;&lt;div style=&quot;font-size: 7px;&quot;&gt;&lt;span style=&quot;color: rgb(0, 0, 0); font-family: Helvetica; font-size: 7px; font-style: normal; font-variant-ligatures: normal; font-variant-caps: normal; font-weight: 400; letter-spacing: normal; orphans: 2; text-align: center; text-indent: 0px; text-transform: none; widows: 2; word-spacing: 0px; -webkit-text-stroke-width: 0px; white-space: normal; background-color: rgb(251, 251, 251); text-decoration-thickness: initial; text-decoration-style: initial; text-decoration-color: initial; float: none; display: inline !important;&quot;&gt;RECEBIDO&lt;/span&gt;&lt;/div&gt;" style="text;whiteSpace=wrap;html=1;fontSize=7;" vertex="1" parent="m2FTEEQ7p--lfM0Sk6VC-1">
          <mxGeometry x="270" y="40" width="40" height="30" as="geometry" />
        </mxCell>
        <mxCell id="m2FTEEQ7p--lfM0Sk6VC-6" style="edgeStyle=orthogonalEdgeStyle;rounded=0;orthogonalLoop=1;jettySize=auto;html=1;entryX=0;entryY=0.5;entryDx=0;entryDy=0;dashed=1;" edge="1" parent="m2FTEEQ7p--lfM0Sk6VC-1" source="m2FTEEQ7p--lfM0Sk6VC-8" target="m2FTEEQ7p--lfM0Sk6VC-9">
          <mxGeometry relative="1" as="geometry" />
        </mxCell>
        <mxCell id="m2FTEEQ7p--lfM0Sk6VC-7" style="edgeStyle=orthogonalEdgeStyle;rounded=0;orthogonalLoop=1;jettySize=auto;html=1;" edge="1" parent="m2FTEEQ7p--lfM0Sk6VC-1" source="m2FTEEQ7p--lfM0Sk6VC-8" target="m2FTEEQ7p--lfM0Sk6VC-12">
          <mxGeometry relative="1" as="geometry" />
        </mxCell>
        <mxCell id="m2FTEEQ7p--lfM0Sk6VC-8" value="lbd-defesa-auto-reter" style="rounded=0;whiteSpace=wrap;html=1;fillColor=#f5f5f5;gradientColor=#b3b3b3;strokeColor=#666666;" vertex="1" parent="m2FTEEQ7p--lfM0Sk6VC-1">
          <mxGeometry x="340" y="90" width="80" height="40" as="geometry" />
        </mxCell>
        <mxCell id="m2FTEEQ7p--lfM0Sk6VC-9" value="&lt;span style=&quot;color: rgb(0, 0, 0); font-family: Helvetica; font-size: 7px; font-style: normal; font-variant-ligatures: normal; font-variant-caps: normal; font-weight: 400; letter-spacing: normal; orphans: 2; text-align: center; text-indent: 0px; text-transform: none; widows: 2; word-spacing: 0px; -webkit-text-stroke-width: 0px; white-space: normal; background-color: rgb(251, 251, 251); text-decoration-thickness: initial; text-decoration-style: initial; text-decoration-color: initial; float: none; display: inline !important;&quot;&gt;Posição:&lt;/span&gt;&lt;div style=&quot;font-size: 7px;&quot;&gt;&lt;span style=&quot;color: rgb(0, 0, 0); font-family: Helvetica; font-size: 7px; font-style: normal; font-variant-ligatures: normal; font-variant-caps: normal; font-weight: 400; letter-spacing: normal; orphans: 2; text-align: center; text-indent: 0px; text-transform: none; widows: 2; word-spacing: 0px; -webkit-text-stroke-width: 0px; white-space: normal; background-color: rgb(251, 251, 251); text-decoration-thickness: initial; text-decoration-style: initial; text-decoration-color: initial; float: none; display: inline !important;&quot;&gt;ENVIAR_RET_AUTO&lt;/span&gt;&lt;/div&gt;" style="text;whiteSpace=wrap;html=1;fontSize=7;" vertex="1" parent="m2FTEEQ7p--lfM0Sk6VC-1">
          <mxGeometry x="400" y="40" width="80" height="30" as="geometry" />
        </mxCell>
        <mxCell id="m2FTEEQ7p--lfM0Sk6VC-10" style="edgeStyle=orthogonalEdgeStyle;rounded=0;orthogonalLoop=1;jettySize=auto;html=1;entryX=0;entryY=0.5;entryDx=0;entryDy=0;dashed=1;" edge="1" parent="m2FTEEQ7p--lfM0Sk6VC-1" source="m2FTEEQ7p--lfM0Sk6VC-12" target="m2FTEEQ7p--lfM0Sk6VC-13">
          <mxGeometry relative="1" as="geometry" />
        </mxCell>
        <mxCell id="m2FTEEQ7p--lfM0Sk6VC-11" style="edgeStyle=orthogonalEdgeStyle;rounded=0;orthogonalLoop=1;jettySize=auto;html=1;entryX=0;entryY=0.5;entryDx=0;entryDy=0;dashed=1;exitX=1;exitY=0.5;exitDx=0;exitDy=0;" edge="1" parent="m2FTEEQ7p--lfM0Sk6VC-1" source="mBktgJC9d8SOZvsFsr8O-0" target="m2FTEEQ7p--lfM0Sk6VC-22">
          <mxGeometry relative="1" as="geometry">
            <Array as="points">
              <mxPoint x="710" y="110" />
              <mxPoint x="710" y="150" />
              <mxPoint x="90" y="150" />
              <mxPoint x="90" y="230" />
            </Array>
          </mxGeometry>
        </mxCell>
        <mxCell id="mBktgJC9d8SOZvsFsr8O-1" style="edgeStyle=orthogonalEdgeStyle;rounded=0;orthogonalLoop=1;jettySize=auto;html=1;entryX=0;entryY=0.5;entryDx=0;entryDy=0;" edge="1" parent="m2FTEEQ7p--lfM0Sk6VC-1" source="m2FTEEQ7p--lfM0Sk6VC-12" target="mBktgJC9d8SOZvsFsr8O-0">
          <mxGeometry relative="1" as="geometry" />
        </mxCell>
        <mxCell id="m2FTEEQ7p--lfM0Sk6VC-12" value="lbd-defesa-enviar-retida" style="rounded=0;whiteSpace=wrap;html=1;fillColor=#f5f5f5;gradientColor=#b3b3b3;strokeColor=#666666;" vertex="1" parent="m2FTEEQ7p--lfM0Sk6VC-1">
          <mxGeometry x="500" y="90" width="80" height="40" as="geometry" />
        </mxCell>
        <mxCell id="m2FTEEQ7p--lfM0Sk6VC-13" value="&lt;span style=&quot;color: rgb(0, 0, 0); font-family: Helvetica; font-size: 7px; font-style: normal; font-variant-ligatures: normal; font-variant-caps: normal; font-weight: 400; letter-spacing: normal; orphans: 2; text-align: center; text-indent: 0px; text-transform: none; widows: 2; word-spacing: 0px; -webkit-text-stroke-width: 0px; white-space: normal; background-color: rgb(251, 251, 251); text-decoration-thickness: initial; text-decoration-style: initial; text-decoration-color: initial; float: none; display: inline !important;&quot;&gt;Posição:&lt;/span&gt;&lt;div style=&quot;font-size: 7px;&quot;&gt;&lt;span style=&quot;color: rgb(0, 0, 0); font-family: Helvetica; font-size: 7px; font-style: normal; font-variant-ligatures: normal; font-variant-caps: normal; font-weight: 400; letter-spacing: normal; orphans: 2; text-align: center; text-indent: 0px; text-transform: none; widows: 2; word-spacing: 0px; -webkit-text-stroke-width: 0px; white-space: normal; background-color: rgb(251, 251, 251); text-decoration-thickness: initial; text-decoration-style: initial; text-decoration-color: initial; float: none; display: inline !important;&quot;&gt;ENVIADO_RETENCAO&lt;/span&gt;&lt;/div&gt;" style="text;whiteSpace=wrap;html=1;fontSize=7;" vertex="1" parent="m2FTEEQ7p--lfM0Sk6VC-1">
          <mxGeometry x="560" y="40" width="60" height="30" as="geometry" />
        </mxCell>
        <mxCell id="m2FTEEQ7p--lfM0Sk6VC-14" style="edgeStyle=orthogonalEdgeStyle;rounded=0;orthogonalLoop=1;jettySize=auto;html=1;entryX=0;entryY=0.5;entryDx=0;entryDy=0;" edge="1" parent="m2FTEEQ7p--lfM0Sk6VC-1" source="m2FTEEQ7p--lfM0Sk6VC-15" target="m2FTEEQ7p--lfM0Sk6VC-4">
          <mxGeometry relative="1" as="geometry" />
        </mxCell>
        <mxCell id="m2FTEEQ7p--lfM0Sk6VC-15" value="ACTC602" style="ellipse;whiteSpace=wrap;html=1;aspect=fixed;fontSize=8;fillColor=#f5f5f5;gradientColor=#b3b3b3;strokeColor=#666666;fontStyle=1" vertex="1" parent="m2FTEEQ7p--lfM0Sk6VC-1">
          <mxGeometry x="110" y="85" width="50" height="50" as="geometry" />
        </mxCell>
        <mxCell id="m2FTEEQ7p--lfM0Sk6VC-17" style="edgeStyle=orthogonalEdgeStyle;rounded=0;orthogonalLoop=1;jettySize=auto;html=1;entryX=0;entryY=0.5;entryDx=0;entryDy=0;dashed=1;" edge="1" parent="m2FTEEQ7p--lfM0Sk6VC-1" source="m2FTEEQ7p--lfM0Sk6VC-19" target="m2FTEEQ7p--lfM0Sk6VC-20">
          <mxGeometry relative="1" as="geometry" />
        </mxCell>
        <mxCell id="mBktgJC9d8SOZvsFsr8O-12" style="edgeStyle=orthogonalEdgeStyle;rounded=0;orthogonalLoop=1;jettySize=auto;html=1;entryX=0;entryY=0.5;entryDx=0;entryDy=0;exitX=1;exitY=0.5;exitDx=0;exitDy=0;dashed=1;" edge="1" parent="m2FTEEQ7p--lfM0Sk6VC-1" source="m2FTEEQ7p--lfM0Sk6VC-19" target="mBktgJC9d8SOZvsFsr8O-11">
          <mxGeometry relative="1" as="geometry">
            <Array as="points">
              <mxPoint x="310" y="230" />
              <mxPoint x="310" y="270" />
              <mxPoint x="90" y="270" />
              <mxPoint x="90" y="350" />
            </Array>
          </mxGeometry>
        </mxCell>
        <mxCell id="m2FTEEQ7p--lfM0Sk6VC-19" value="lbd-distribuir" style="rounded=0;whiteSpace=wrap;html=1;fillColor=#f5f5f5;gradientColor=#b3b3b3;strokeColor=#666666;" vertex="1" parent="m2FTEEQ7p--lfM0Sk6VC-1">
          <mxGeometry x="210" y="210" width="80" height="40" as="geometry" />
        </mxCell>
        <mxCell id="m2FTEEQ7p--lfM0Sk6VC-20" value="&lt;span style=&quot;color: rgb(0, 0, 0); font-family: Helvetica; font-size: 7px; font-style: normal; font-variant-ligatures: normal; font-variant-caps: normal; font-weight: 400; letter-spacing: normal; orphans: 2; text-align: center; text-indent: 0px; text-transform: none; widows: 2; word-spacing: 0px; -webkit-text-stroke-width: 0px; white-space: normal; background-color: rgb(251, 251, 251); text-decoration-thickness: initial; text-decoration-style: initial; text-decoration-color: initial; float: none; display: inline !important;&quot;&gt;Posição:&lt;/span&gt;&lt;div style=&quot;text-align: center; font-size: 7px;&quot;&gt;POSICAO_RETIDA&lt;/div&gt;" style="text;whiteSpace=wrap;html=1;fontSize=7;" vertex="1" parent="m2FTEEQ7p--lfM0Sk6VC-1">
          <mxGeometry x="270" y="160" width="60" height="30" as="geometry" />
        </mxCell>
        <mxCell id="m2FTEEQ7p--lfM0Sk6VC-21" style="edgeStyle=orthogonalEdgeStyle;rounded=0;orthogonalLoop=1;jettySize=auto;html=1;entryX=0;entryY=0.5;entryDx=0;entryDy=0;" edge="1" parent="m2FTEEQ7p--lfM0Sk6VC-1" source="m2FTEEQ7p--lfM0Sk6VC-22" target="m2FTEEQ7p--lfM0Sk6VC-19">
          <mxGeometry relative="1" as="geometry" />
        </mxCell>
        <mxCell id="m2FTEEQ7p--lfM0Sk6VC-22" value="ACTC603RET" style="ellipse;whiteSpace=wrap;html=1;aspect=fixed;fontSize=6;fillColor=#f5f5f5;gradientColor=#b3b3b3;strokeColor=#666666;fontStyle=1" vertex="1" parent="m2FTEEQ7p--lfM0Sk6VC-1">
          <mxGeometry x="110" y="205" width="50" height="50" as="geometry" />
        </mxCell>
        <mxCell id="mBktgJC9d8SOZvsFsr8O-0" value="ACTC603" style="ellipse;whiteSpace=wrap;html=1;aspect=fixed;fontSize=8;fillColor=#f5f5f5;gradientColor=#b3b3b3;strokeColor=#666666;fontStyle=1" vertex="1" parent="m2FTEEQ7p--lfM0Sk6VC-1">
          <mxGeometry x="640" y="85" width="50" height="50" as="geometry" />
        </mxCell>
        <mxCell id="mBktgJC9d8SOZvsFsr8O-7" style="edgeStyle=orthogonalEdgeStyle;rounded=0;orthogonalLoop=1;jettySize=auto;html=1;entryX=0;entryY=0.5;entryDx=0;entryDy=0;dashed=1;" edge="1" parent="m2FTEEQ7p--lfM0Sk6VC-1" source="mBktgJC9d8SOZvsFsr8O-8" target="mBktgJC9d8SOZvsFsr8O-9">
          <mxGeometry relative="1" as="geometry" />
        </mxCell>
        <mxCell id="mBktgJC9d8SOZvsFsr8O-8" value="lbd-distribuir" style="rounded=0;whiteSpace=wrap;html=1;fillColor=#f5f5f5;gradientColor=#b3b3b3;strokeColor=#666666;" vertex="1" parent="m2FTEEQ7p--lfM0Sk6VC-1">
          <mxGeometry x="210" y="330" width="80" height="40" as="geometry" />
        </mxCell>
        <mxCell id="mBktgJC9d8SOZvsFsr8O-9" value="&lt;span style=&quot;color: rgb(0, 0, 0); font-family: Helvetica; font-size: 7px; font-style: normal; font-variant-ligatures: normal; font-variant-caps: normal; font-weight: 400; letter-spacing: normal; orphans: 2; text-align: center; text-indent: 0px; text-transform: none; widows: 2; word-spacing: 0px; -webkit-text-stroke-width: 0px; white-space: normal; background-color: rgb(251, 251, 251); text-decoration-thickness: initial; text-decoration-style: initial; text-decoration-color: initial; float: none; display: inline !important;&quot;&gt;Posição:&lt;/span&gt;&lt;div style=&quot;text-align: center; font-size: 7px;&quot;&gt;RETIDA&lt;/div&gt;" style="text;whiteSpace=wrap;html=1;fontSize=7;" vertex="1" parent="m2FTEEQ7p--lfM0Sk6VC-1">
          <mxGeometry x="270" y="280" width="60" height="30" as="geometry" />
        </mxCell>
        <mxCell id="mBktgJC9d8SOZvsFsr8O-10" style="edgeStyle=orthogonalEdgeStyle;rounded=0;orthogonalLoop=1;jettySize=auto;html=1;entryX=0;entryY=0.5;entryDx=0;entryDy=0;" edge="1" parent="m2FTEEQ7p--lfM0Sk6VC-1" source="mBktgJC9d8SOZvsFsr8O-11" target="mBktgJC9d8SOZvsFsr8O-8">
          <mxGeometry relative="1" as="geometry" />
        </mxCell>
        <mxCell id="mBktgJC9d8SOZvsFsr8O-11" value="ACTC104" style="ellipse;whiteSpace=wrap;html=1;aspect=fixed;fontSize=6;fillColor=#f5f5f5;gradientColor=#b3b3b3;strokeColor=#666666;fontStyle=1" vertex="1" parent="m2FTEEQ7p--lfM0Sk6VC-1">
          <mxGeometry x="110" y="325" width="50" height="50" as="geometry" />
        </mxCell>
      </root>
    </mxGraphModel>
  </diagram>
</mxfile>
